<?xml version="1.0" encoding="UTF-8" standalone="no"?>
<svg
   version="1.1"
   viewBox="-5 -10 55.03939 54.996014"
   id="svg2"
   sodipodi:docname="design.svg"
   width="55.039391"
   height="54.996014"
   inkscape:version="1.3.2 (091e20e, 2023-11-25, custom)"
   xmlns:inkscape="http://www.inkscape.org/namespaces/inkscape"
   xmlns:sodipodi="http://sodipodi.sourceforge.net/DTD/sodipodi-0.dtd"
   xmlns="http://www.w3.org/2000/svg"
   xmlns:svg="http://www.w3.org/2000/svg">
  <defs
     id="defs2" />
  <sodipodi:namedview
     id="namedview2"
     pagecolor="#ffffff"
     bordercolor="#000000"
     borderopacity="0.25"
     inkscape:showpageshadow="2"
     inkscape:pageopacity="0.0"
     inkscape:pagecheckerboard="0"
     inkscape:deskcolor="#d1d1d1"
     inkscape:zoom="3.0111111"
     inkscape:cx="51.642067"
     inkscape:cy="-9.1328414"
     inkscape:window-width="2560"
     inkscape:window-height="1009"
     inkscape:window-x="-8"
     inkscape:window-y="-8"
     inkscape:window-maximized="1"
     inkscape:current-layer="svg2" />
  <path
     d="M 49.638573,37.74462 C 49.036559,33.39516 47.9196,30.31738 46.200566,28.59859 44.71128,26.98354 42.738358,25.89074 40.579382,25.48701 c -0.57058,-0.0725 -1.148437,-0.0725 -1.718973,0 0.263531,-1.55458 -0.200672,-3.14544 -1.254769,-4.31566 L 34.544811,17.955787 48.487599,4.0129999 c 1.977688,-2.009132 1.977688,-5.231936 0,-7.238466 l -5.244065,-5.27786 c -2.009132,-1.9897559 -5.246479,-1.9897559 -7.255796,0 L 22.509152,4.9077949 11.781741,-6.8711891 c -1.7915125,-1.926936 -4.2818048,-3.056 -6.9122858,-3.12854 -2.625654,-0.01935 -5.15456698,0.99853 -7.030502,2.838382 -1.8664657,1.859224 -2.8916107,4.400268 -2.8359682,7.03297802 0.055642,2.63271098 1.1847067,5.13042898 3.1261256,6.90980898 L 9.9080955,17.508852 -3.5030255,30.90326 c -0.9743303,0.98157 -1.513486,2.31136 -1.496589,3.69431 v 8.99377 c 0,0.76884 0.6237644,1.39261 1.3926076,1.39261 h 9.0086241 c 1.361165,-0.002 2.664337,-0.53915 3.6290113,-1.49659 l 13.9427885,-13.94279 3.162396,2.90609 c 1.160505,1.07832 2.758601,1.54976 4.315659,1.27173 -0.06528,0.57059 -0.06528,1.14844 0,1.71898 0.418265,2.15904 1.513487,4.12948 3.130954,5.62118 1.822955,1.83991 4.934596,3.04393 9.25001,3.59274 h -0.0024 c 1.421634,0.18133 2.850512,0.2853 4.281803,0.30947 0.841382,0.10396 1.692421,-0.0532 2.441892,-0.44486 0.790567,-0.68906 0.464201,-4.54046 0.08462,-6.77426 z M 37.982756,-6.5625881 c 0.911509,-0.909094 2.388726,-0.909094 3.300171,0 l 5.297233,5.314129 c 0.435186,0.43519302 0.679407,1.02508302 0.679407,1.64160702 0,0.61652298 -0.24419,1.20643098 -0.679407,1.64160598 L 32.721546,15.893365 24.520635,6.9695349 Z M 7.0359202,41.57893 c -0.456949,0.4497 -1.075898,0.69872 -1.718974,0.68665 h -7.5145104 v -7.66925 c -0.00725,-0.59959 0.2224336,-1.17981 0.6358338,-1.61505 l 5.1569806,-5.15698 8.5976508,8.59765 z m 7.1852368,-7.18524 -8.5976518,-8.59765 6.3100608,-6.293344 8.940543,8.200914 z m 17.020759,-3.98923 v -0.002 c -0.906618,0.85587 -2.323425,0.85587 -3.230106,0 L 0.02163322,4.7161719 C -2.0454915,2.7964779 -2.729726,-0.18939608 -1.7046434,-2.8175251 c 1.02266865,-2.628068 3.5468166,-4.364 6.3682386,-4.380897 h 0.137814 c 1.871292,0.03869 3.648323,0.841384 4.9152243,2.219447 L 35.506489,23.0112 c 0.855866,0.90662 0.855866,2.32343 0,3.23011 z m 4.332559,8.80314 v -0.002 C 34.39218,38.1297 33.575,36.71295 33.236563,35.14865 c -0.166822,-1.84232 0.594763,-3.64832 2.028443,-4.81365 1.167747,-1.43612 2.973805,-2.19772 4.816071,-2.02844 1.559411,0.34331 2.976218,1.1605 4.056943,2.33791 2.441891,2.33791 2.973806,8.66511 3.077787,11.57102 -2.889197,-0.0363 -9.095274,-0.53432 -11.621775,-3.07779 z"
     id="path1"
     style="stroke-width:0.618937" />
</svg>
