<svg
   id="footer_logo"
   viewBox="0 0 882.40521 162.06"
   version="1.1"
   width="882.40521"
   height="162.06"
   xmlns="http://www.w3.org/2000/svg"
   xmlns:svg="http://www.w3.org/2000/svg">
  <defs
     id="defs2" />
  <path
  stroke="currentColor"
  fill="currentColor"
     id="polyline1"
     style="fill:none;stroke:currentColor;stroke-width:25.64px;stroke-linecap:round;stroke-linejoin:round"
     transform="translate(-112.4,-458.97)"
     d="M 125.22,608.21 193.43,540 125.22,471.79" />
  <path
  stroke="currentColor"
  fill="currentColor"
     id="circle1"
     style="fill:currentColor"
     d="m 134.41,81.029999 a 17.18,17.18 0 0 1 -17.18,17.18 17.18,17.18 0 0 1 -17.18,-17.18 17.18,17.18 0 0 1 17.18,-17.180001 17.18,17.18 0 0 1 17.18,17.180001 z" />
  <path
  stroke="currentColor"
  fill="currentColor"
     d="M 215.97135,52.674544 V 81.190002 H 200.9192 V 76.548923 59.448011 q 0,-6.146294 -0.29268,-8.445928 -0.25087,-2.299633 -0.91985,-3.386733 -0.87804,-1.463403 -2.38326,-2.257822 -1.50521,-0.83623 -3.42854,-0.83623 -4.68289,0 -7.35883,3.637602 -2.67594,3.595791 -2.67594,9.992954 V 81.190002 H 168.89158 V 16.131274 h 14.96852 v 25.086913 q 3.38674,-4.097529 7.19159,-6.020859 3.80484,-1.965141 8.40411,-1.965141 8.11144,0 12.29259,4.975571 4.22296,4.975571 4.22296,14.466786 z m 36.16697,-8.738608 q -4.97557,0 -7.6097,3.595791 -2.59231,3.55398 -2.59231,10.285635 0,6.731655 2.59231,10.327446 2.63413,3.553979 7.6097,3.553979 4.89195,0 7.48426,-3.553979 2.59232,-3.595791 2.59232,-10.327446 0,-6.731655 -2.59232,-10.285635 -2.59231,-3.595791 -7.48426,-3.595791 z m 0,-10.703749 q 12.08353,0 18.857,6.522597 6.81528,6.522597 6.81528,18.062578 0,11.53998 -6.81528,18.062577 -6.77347,6.522598 -18.857,6.522598 -12.12534,0 -18.98243,-6.522598 -6.81528,-6.522597 -6.81528,-18.062577 0,-11.539981 6.81528,-18.062578 6.85709,-6.522597 18.98243,-6.522597 z m 83.62304,19.442357 V 81.190002 H 320.70921 V 76.548923 59.448011 q 0,-6.146294 -0.29268,-8.445928 -0.25087,-2.299633 -0.91985,-3.386733 -0.87804,-1.463403 -2.38326,-2.257822 -1.50521,-0.83623 -3.42854,-0.83623 -4.68289,0 -7.35883,3.637602 -2.67594,3.595791 -2.67594,9.992954 V 81.190002 H 288.68159 V 16.131274 h 14.96852 v 25.086913 q 3.38674,-4.097529 7.19158,-6.020859 3.80485,-1.965141 8.40412,-1.965141 8.11144,0 12.29259,4.975571 4.22296,4.975571 4.22296,14.466786 z m 57.2818,-10.536503 q 2.84318,-4.348398 6.73165,-6.606221 3.93029,-2.299633 8.61318,-2.299633 8.06962,0 12.29259,4.975571 4.22296,4.975571 4.22296,14.466786 V 81.190002 H 409.85139 V 56.772074 q 0.0418,-0.54355 0.0418,-1.128912 0.0418,-0.585361 0.0418,-1.67246 0,-4.975572 -1.4634,-7.191582 -1.4634,-2.257822 -4.7247,-2.257822 -4.26478,0 -6.60622,3.512167 -2.29964,3.512168 -2.38326,10.1602 V 81.190002 H 379.70528 V 56.772074 q 0,-7.776944 -1.33796,-9.992954 -1.33797,-2.257822 -4.76652,-2.257822 -4.30659,0 -6.64803,3.553979 -2.34145,3.512168 -2.34145,10.076577 V 81.190002 H 349.55918 V 34.361098 h 15.05214 v 6.857089 q 2.75956,-3.972094 6.31354,-5.979047 3.5958,-2.006953 7.90238,-2.006953 4.85014,0 8.57136,2.341445 3.72123,2.341445 5.64456,6.564409 z m 66.81479,17.978954 q -4.68289,0 -7.06614,1.588838 -2.34145,1.588838 -2.34145,4.682891 0,2.843183 1.88152,4.473832 1.92333,1.588838 5.31006,1.588838 4.22297,0 7.10796,-3.010429 2.885,-3.052241 2.885,-7.609697 V 60.116995 Z M 482.72886,54.47244 V 81.190002 H 467.6349 V 74.24929 q -3.01043,4.264775 -6.77347,6.229917 -3.76304,1.92333 -9.15672,1.92333 -7.27521,0 -11.83266,-4.222964 -4.51565,-4.264775 -4.51565,-11.038242 0,-8.23687 5.64456,-12.08353 5.68636,-3.84666 17.8117,-3.84666 h 8.82224 v -1.170723 q 0,-3.553979 -2.80138,-5.184628 -2.80137,-1.672461 -8.7386,-1.672461 -4.80833,0 -8.94767,0.961665 -4.13934,0.961665 -7.69332,2.884995 V 35.615443 q 4.80832,-1.170722 9.65846,-1.756084 4.85014,-0.627172 9.70027,-0.627172 12.6689,0 18.27164,5.017382 5.64456,4.975571 5.64456,16.222871 z m 61.00302,-1.797896 V 81.190002 H 528.67973 V 76.548923 59.364388 q 0,-6.062671 -0.29268,-8.362305 -0.25087,-2.299633 -0.91985,-3.386733 -0.87804,-1.463403 -2.38326,-2.257822 -1.50521,-0.83623 -3.42854,-0.83623 -4.68289,0 -7.35883,3.637602 -2.67594,3.595791 -2.67594,9.992954 V 81.190002 H 496.65211 V 34.361098 h 14.96852 v 6.857089 q 3.38674,-4.097529 7.19158,-6.020859 3.80485,-1.965141 8.40412,-1.965141 8.11144,0 12.29259,4.975571 4.22296,4.975571 4.22296,14.466786 z M 619.28531,41.218187 V 16.131274 h 15.05215 v 65.058728 h -15.05215 v -6.773466 q -3.09405,4.139341 -6.81527,6.062671 -3.72123,1.92333 -8.61318,1.92333 -8.65498,0 -14.21591,-6.85709 -5.56094,-6.898901 -5.56094,-17.728085 0,-10.829185 5.56094,-17.686274 5.56093,-6.898901 14.21591,-6.898901 4.85014,0 8.57136,1.965141 3.76304,1.92333 6.85709,6.020859 z m -9.86751,30.313354 q 4.80832,0 7.31701,-3.512168 2.5505,-3.512168 2.5505,-10.202011 0,-6.689844 -2.5505,-10.202012 -2.50869,-3.512168 -7.31701,-3.512168 -4.76652,0 -7.31702,3.512168 -2.50869,3.512168 -2.50869,10.202012 0,6.689843 2.50869,10.202011 2.5505,3.512168 7.31702,3.512168 z m 39.30282,-37.170443 h 14.96852 v 46.828904 h -14.96852 z m 0,-18.229824 h 14.96852 v 12.208965 h -14.96852 z m 61.21206,57.114539 q -3.09405,4.097529 -6.81527,6.020859 -3.72123,1.92333 -8.61318,1.92333 -8.57136,0 -14.1741,-6.731655 -5.60275,-6.773466 -5.60275,-17.226347 0,-10.494692 5.60275,-17.184535 5.60274,-6.731655 14.1741,-6.731655 4.89195,0 8.61318,1.92333 3.72122,1.92333 6.81527,6.06267 v -6.940712 h 15.05215 V 76.4653 q 0,11.289111 -7.14977,17.226348 -7.10796,5.979047 -20.65489,5.979047 -4.39021,0 -8.48774,-0.668984 -4.09753,-0.668984 -8.23687,-2.048765 V 85.287532 q 3.93028,2.257822 7.69332,3.344921 3.76304,1.128911 7.56789,1.128911 7.35882,0 10.78737,-3.219487 3.42854,-3.219487 3.42854,-10.076577 z m -9.86752,-29.142631 q -4.64107,0 -7.23339,3.428545 -2.59231,3.428545 -2.59231,9.700273 0,6.438975 2.50869,9.783896 2.50869,3.303111 7.31701,3.303111 4.68289,0 7.27521,-3.428545 2.59231,-3.428545 2.59231,-9.658462 0,-6.271728 -2.59231,-9.700273 -2.59232,-3.428545 -7.27521,-3.428545 z m 39.30286,-9.742084 h 14.96852 v 46.828904 h -14.96852 z m 0,-18.229824 h 14.96852 v 12.208965 h -14.96852 z m 45.69999,4.93376 v 13.296064 h 15.42845 V 45.064847 H 785.06801 V 64.92532 q 0,3.261299 1.29616,4.432022 1.29615,1.128911 5.14281,1.128911 h 7.69332 v 10.703749 h -12.83613 q -8.86405,0 -12.58527,-3.679414 -3.67942,-3.721225 -3.67942,-12.585268 V 45.064847 h -7.44245 V 34.361098 h 7.44245 V 21.065034 Z m 45.57455,39.051961 q -4.68289,0 -7.06615,1.588838 -2.34144,1.588838 -2.34144,4.682891 0,2.843183 1.88152,4.473832 1.92333,1.588838 5.31006,1.588838 4.22296,0 7.10796,-3.010429 2.88499,-3.052241 2.88499,-7.609697 v -1.714273 z m 22.8709,-5.644555 V 81.190002 H 838.4195 V 74.24929 q -3.01043,4.264775 -6.77346,6.229917 -3.76304,1.92333 -9.15673,1.92333 -7.2752,0 -11.83266,-4.222964 -4.51564,-4.264775 -4.51564,-11.038242 0,-8.23687 5.64455,-12.08353 5.68637,-3.84666 17.81171,-3.84666 h 8.82223 v -1.170723 q 0,-3.553979 -2.80137,-5.184628 -2.80137,-1.672461 -8.73861,-1.672461 -4.80832,0 -8.94766,0.961665 -4.13934,0.961665 -7.69332,2.884995 V 35.615443 q 4.80832,-1.170722 9.65846,-1.756084 4.85013,-0.627172 9.70027,-0.627172 12.66889,0 18.27164,5.017382 5.64455,4.975571 5.64455,16.222871 z m 13.92322,-38.341166 h 14.96853 v 65.058728 h -14.96853 z"
     id="text1"
     style="font-weight:700;font-size:85.63px;font-family:Nexa-ExtraBold, Nexa"
     aria-label="hohman digital" />
  <path
     d="m 170.40609,131.73371 v 14.15673 h 8.00721 q 4.05698,0 6.02141,-1.75091 1.96443,-1.72955 1.96443,-5.33813 0,-3.62994 -1.96443,-5.33814 -1.96443,-1.72955 -6.02141,-1.72955 z m 0,-14.24215 v 12.49124 h 7.47339 q 3.67264,0 5.46625,-1.53738 1.79361,-1.53739 1.79361,-4.74027 0,-3.13882 -1.79361,-4.65485 -1.79361,-1.55874 -5.46625,-1.55874 z m -2.13525,-1.75091 h 9.92893 q 4.37727,0 6.7474,2.04985 2.37013,2.04984 2.37013,5.82924 0,3.11747 -1.21709,4.65485 -1.34521,1.70821 -3.24559,2.32743 2.75448,0.72599 4.1424,2.66907 1.55873,2.17796 1.55873,5.42354 0,4.27051 -2.58366,6.59794 -2.58365,2.32743 -7.34527,2.32743 h -10.35598 z m 27.95047,22.39882 v -14.43432 h 1.96444 v 14.3062 q 0,4.65486 1.49467,6.55523 1.49468,1.90038 4.39863,1.90038 3.39505,0 5.80789,-2.04985 2.43419,-2.07119 2.43419,-7.1958 v -13.51616 h 1.96443 V 147.62 h -1.96443 v -4.48404 q -1.04628,2.17796 -2.75448,3.331 -2.5196,1.72955 -5.57301,1.72955 -3.54452,0 -5.65843,-2.41283 -2.1139,-2.39149 -2.1139,-7.64421 z m 27.92912,-14.43432 h 1.96444 V 147.62 h -1.96444 z m 0,-9.30971 h 1.96444 v 2.69042 h -1.96444 z m 12.19231,0 h 1.96443 V 147.62 h -1.96443 z m 28.03587,14.77596 v -14.77596 h 1.92173 V 147.62 h -1.92173 v -5.42355 q -1.34521,3.11747 -2.92529,4.27051 -2.41284,1.77226 -4.54809,1.77226 -4.24916,0 -7.06769,-3.45911 -2.81854,-3.45911 -2.81854,-9.09618 0,-5.63707 2.81854,-9.09619 2.81853,-3.45911 7.06769,-3.45911 2.13525,0 4.54809,1.77226 1.58008,1.15304 2.92529,4.27051 z m -12.81152,-1.81496 q -2.47689,2.49824 -2.47689,8.32749 0,5.82924 2.47689,8.32749 2.45554,2.49824 5.18867,2.49824 2.66906,0 5.14596,-2.49824 2.45554,-2.49825 2.45554,-8.32749 0,-5.82925 -2.45554,-8.32749 -2.4769,-2.49825 -5.14596,-2.49825 -2.73313,0 -5.18867,2.49825 z m 24.64083,-3.65129 h 1.96443 V 147.62 h -1.96443 z m 0,-9.30971 h 1.96443 v 2.69042 h -1.96443 z m 30.25655,18.79024 V 147.62 h -1.96443 v -14.30621 q 0,-4.65485 -1.49468,-6.55523 -1.49468,-1.90037 -4.39862,-1.90037 -3.39506,0 -5.80789,2.04984 -2.43419,2.0712 -2.43419,7.19581 V 147.62 h -1.96444 v -23.91485 h 1.96444 v 4.48403 q 1.04627,-2.17795 2.75447,-3.33099 2.5196,-1.72956 5.57302,-1.72956 3.54452,0 5.65842,2.41284 2.1139,2.39148 2.1139,7.64421 z m 25.53764,2.19931 q 0,-4.97514 -2.02849,-7.70827 -2.00714,-2.75447 -5.65842,-2.75447 -3.60858,0 -5.63707,2.75447 -2.00714,2.73313 -2.00714,7.70827 0,4.95379 2.00714,7.70827 2.02849,2.73312 5.63707,2.73312 3.65128,0 5.65842,-2.73312 2.02849,-2.75448 2.02849,-7.70827 z m 1.96443,9.267 q 0,7.45204 -2.83988,9.75811 -2.83989,2.30608 -7.19581,2.30608 -2.07119,0 -3.90751,-0.29894 -1.83632,-0.32029 -3.56588,-0.96086 v -2.24202 q 1.72956,0.93951 3.41641,1.38792 1.68685,0.4484 3.43776,0.4484 3.56587,0 6.12818,-1.51603 2.5623,-1.51603 2.5623,-8.17802 v -3.7367 q -0.87545,2.45554 -2.41284,3.86481 -2.34878,2.15661 -5.27407,2.13526 -4.54809,0 -7.08905,-3.20289 -2.54095,-3.22423 -2.54095,-9.05347 0,-5.80789 2.54095,-9.01077 2.54096,-3.22424 7.08905,-3.22424 2.90394,0 4.99649,1.83632 1.62279,1.43062 2.69042,3.82211 v -5.08191 h 1.96443 z m 24.36324,-28.91134 h 2.968 l 8.86131,23.63727 8.904,-23.63727 h 2.94666 V 147.62 h -2.17796 v -27.99318 l -8.19938,21.865 h -2.94665 l -8.17802,-21.865 V 147.62 h -2.17796 z m 54.2995,18.93971 v 1.23844 h -18.14965 q 0,5.76519 2.24201,8.07126 2.4769,2.56231 7.36663,2.56231 1.28115,0 3.39505,-0.55517 2.13526,-0.55516 4.22781,-1.6655 v 2.0712 q -2.11391,0.89681 -4.33457,1.36656 -2.22066,0.46976 -3.52317,0.46976 -5.53031,0 -8.32749,-2.98936 -3.03206,-3.18152 -3.03206,-9.33106 0,-6.38441 2.77583,-9.52323 2.83989,-3.26694 7.90044,-3.26694 4.69756,0 7.08904,3.09612 2.37013,3.24559 2.37013,8.45561 z m -1.98578,-0.42705 q 0,-5.0392 -2.26337,-7.34528 -1.90038,-2.04984 -5.16732,-2.04984 -3.56587,0 -5.97871,2.13525 -2.22066,1.98579 -2.66906,7.25987 z m 27.45937,-5.33814 q 1.11033,-2.88259 3.50182,-4.35592 2.26337,-1.43062 5.38084,-1.43062 3.11747,0 4.99649,2.19931 1.90038,2.17796 1.90038,7.85774 V 147.62 h -1.94309 v -14.30621 q 0,-4.95378 -1.36656,-6.70469 -1.36656,-1.75091 -3.62993,-1.75091 -3.28829,0 -5.80789,2.02849 -2.75448,2.19931 -2.75448,7.21716 V 147.62 h -1.96443 v -14.30621 q 0,-4.78296 -1.32386,-6.61928 -1.32386,-1.83632 -3.67264,-1.83632 -3.28829,0 -5.80789,2.04984 -2.75447,2.19931 -2.75447,7.19581 V 147.62 h -1.96444 v -23.91485 h 1.96444 v 4.48403 q 1.04627,-2.34877 3.24558,-3.71534 2.22067,-1.34521 5.4449,-1.34521 2.09255,0 4.03563,1.40927 1.49468,1.08898 2.5196,4.37727 z m 39.60896,-1.11033 q -2.1139,-2.94665 -5.76519,-2.94665 -3.65128,0 -5.76518,2.9253 -2.13526,2.90394 -2.13526,7.85773 0,5.08191 2.1139,7.98585 2.1139,2.9253 5.78654,2.9253 3.65129,0 5.76519,-2.9253 2.13525,-2.94665 2.13525,-7.98585 0,-4.88973 -2.13525,-7.83638 z m -5.78654,-4.67621 q 4.56944,0 7.21716,3.41641 2.66906,3.43776 2.66906,9.11753 0,5.87195 -2.66906,9.26701 -2.64772,3.4164 -7.21716,3.4164 -4.61215,0 -7.28122,-3.39505 -2.64771,-3.39506 -2.64771,-9.28836 0,-5.74383 2.66907,-9.13888 2.66906,-3.39506 7.25986,-3.39506 z m 31.30282,2.26337 q -0.46976,-0.23488 -1.28115,-0.4057 -0.72599,-0.12811 -1.83632,-0.12811 -3.62993,0 -6.02142,2.69042 -1.87902,2.17796 -1.87902,7.47339 v 12.598 h -1.92173 v -23.91485 h 1.92173 v 4.48403 q 0.96086,-1.92172 2.69042,-3.24558 2.39148,-1.81497 5.63707,-1.81497 0.83275,0 1.45197,0.0641 0.64058,0 1.23845,0.14947 z m 14.56244,8.73319 q -4.74026,0 -6.83281,1.68685 -2.09255,1.68685 -2.09255,4.93244 0,3.16017 1.72956,4.48403 1.72955,1.32386 4.09969,1.32386 4.48403,0 6.44846,-3.80075 1.98579,-3.80076 1.98579,-7.1531 v -1.47333 z m 7.32393,-0.14947 V 147.62 h -1.94309 v -6.49118 q -1.64414,4.76162 -4.35591,6.06412 -2.15661,1.04628 -4.29186,1.04628 -3.56588,0 -5.61572,-1.90038 -2.04985,-1.92173 -2.04985,-5.63707 0,-3.71534 2.66907,-5.936 2.66907,-2.24202 8.73319,-2.24202 h 4.86838 v -0.38435 q 0,-3.18152 -1.81497,-5.23137 -1.79361,-2.04984 -5.936,-2.04984 -2.04985,0 -4.1851,0.76869 -1.36656,0.49111 -3.54452,1.98579 v -2.11391 q 1.90037,-1.17438 3.54452,-1.66549 2.39148,-0.70464 4.5908,-0.70464 4.2278,0 6.96092,2.56231 2.37014,2.19931 2.37014,8.28478 z m 24.68352,10.0357 q 2.47689,-2.49825 2.47689,-8.32749 0,-5.82925 -2.47689,-8.32749 -2.45554,-2.49825 -5.18867,-2.49825 -2.66907,0 -5.14596,2.49825 -2.45554,2.49824 -2.45554,8.32749 0,5.82924 2.45554,8.32749 2.47689,2.49824 5.14596,2.49824 2.73313,0 5.18867,-2.49824 z M 536.98648,129.1714 q 1.34521,-3.11747 2.92529,-4.27051 2.41284,-1.77226 4.54809,-1.77226 4.24916,0 7.06769,3.45911 2.81854,3.45912 2.81854,9.09619 0,5.63707 -2.81854,9.09618 -2.81853,3.45911 -7.06769,3.45911 -2.13525,0 -4.54809,-1.77226 -1.58008,-1.15304 -2.92529,-4.27051 V 147.62 h -1.92173 v -33.22456 h 1.92173 z m 25.79386,-14.77596 h 1.96444 V 147.62 h -1.96444 z m 30.79037,20.28492 v 1.23844 h -18.14966 q 0,5.76519 2.24201,8.07126 2.4769,2.56231 7.36663,2.56231 1.28115,0 3.39505,-0.55517 2.13526,-0.55516 4.22781,-1.6655 v 2.0712 q -2.1139,0.89681 -4.33457,1.36656 -2.22066,0.46976 -3.52317,0.46976 -5.53031,0 -8.32749,-2.98936 -3.03206,-3.18152 -3.03206,-9.33106 0,-6.38441 2.77583,-9.52323 2.83989,-3.26694 7.90044,-3.26694 4.69756,0 7.08904,3.09612 2.37014,3.24559 2.37014,8.45561 z m -1.98579,-0.42705 q 0,-5.0392 -2.26337,-7.34528 -1.90038,-2.04984 -5.16731,-2.04984 -3.56588,0 -5.97871,2.13525 -2.22067,1.98579 -2.66907,7.25987 z m 24.51273,-18.51266 h 18.02154 v 1.77227 h -15.84358 v 12.235 h 15.18165 v 1.72956 h -15.18165 v 14.41296 h 16.22793 V 147.62 h -18.40589 z m 45.11789,7.9645 -8.64778,11.48767 9.28835,12.42718 h -2.34878 l -8.11396,-10.8898 -8.19938,10.8898 h -2.34877 l 9.35241,-12.51259 -8.49831,-11.40226 h 2.32742 l 7.36663,9.92893 7.47339,-9.92893 z m 9.99301,18.4913 v 14.51973 h -1.92173 v -33.01103 h 1.92173 v 5.46625 q 1.34521,-3.11747 2.9253,-4.27051 2.41284,-1.77226 4.54809,-1.77226 4.24916,0 7.06769,3.45911 2.81854,3.45912 2.81854,9.09619 0,5.63707 -2.81854,9.09618 -2.81853,3.45911 -7.06769,3.45911 -2.13525,0 -4.54809,-1.77226 -1.58009,-1.15304 -2.9253,-4.27051 z m 12.81152,1.81497 q 2.4769,-2.49825 2.4769,-8.32749 0,-5.82925 -2.4769,-8.32749 -2.45554,-2.49825 -5.18866,-2.49825 -2.66907,0 -5.14596,2.49825 -2.45555,2.49824 -2.45555,8.32749 0,5.82924 2.45555,8.32749 2.47689,2.49824 5.14596,2.49824 2.73312,0 5.18866,-2.49824 z m 31.62312,-9.33106 v 1.23844 h -18.14966 q 0,5.76519 2.24201,8.07126 2.4769,2.56231 7.36663,2.56231 1.28115,0 3.39505,-0.55517 2.13526,-0.55516 4.22781,-1.6655 v 2.0712 q -2.11391,0.89681 -4.33457,1.36656 -2.22066,0.46976 -3.52317,0.46976 -5.53031,0 -8.32749,-2.98936 -3.03206,-3.18152 -3.03206,-9.33106 0,-6.38441 2.77583,-9.52323 2.83989,-3.26694 7.90044,-3.26694 4.69756,0 7.08904,3.09612 2.37014,3.24559 2.37014,8.45561 z m -1.98579,-0.42705 q 0,-5.0392 -2.26337,-7.34528 -1.90038,-2.04984 -5.16731,-2.04984 -3.56588,0 -5.97872,2.13525 -2.22066,1.98579 -2.66906,7.25987 z m 23.23154,-8.86131 q -0.46976,-0.23488 -1.28116,-0.4057 -0.72598,-0.12811 -1.83631,-0.12811 -3.62994,0 -6.02142,2.69042 -1.87902,2.17796 -1.87902,7.47339 v 12.598 h -1.92173 v -23.91485 h 1.92173 v 4.48403 q 0.96086,-1.92172 2.69042,-3.24558 2.39148,-1.81497 5.63707,-1.81497 0.83275,0 1.45197,0.0641 0.64058,0 1.23845,0.14947 z m 4.95377,-1.68685 h 1.96443 V 147.62 h -1.96443 z m 0,-9.30971 h 1.96443 v 2.69042 h -1.96443 z m 30.83307,20.28492 v 1.23844 h -18.14966 q 0,5.76519 2.24202,8.07126 2.47689,2.56231 7.36662,2.56231 1.28115,0 3.39506,-0.55517 2.13525,-0.55516 4.2278,-1.6655 v 2.0712 q -2.1139,0.89681 -4.33457,1.36656 -2.22066,0.46976 -3.52317,0.46976 -5.5303,0 -8.32749,-2.98936 -3.03206,-3.18152 -3.03206,-9.33106 0,-6.38441 2.77583,-9.52323 2.83989,-3.26694 7.90044,-3.26694 4.69756,0 7.08905,3.09612 2.37013,3.24559 2.37013,8.45561 z m -1.98579,-0.42705 q 0,-5.0392 -2.26337,-7.34528 -1.90037,-2.04984 -5.16731,-2.04984 -3.56588,0 -5.97871,2.13525 -2.22067,1.98579 -2.66907,7.25987 z m 28.31351,-1.06763 V 147.62 h -1.96444 v -14.30621 q 0,-4.65485 -1.49468,-6.55523 -1.49467,-1.90037 -4.39862,-1.90037 -3.39505,0 -5.80789,2.04984 -2.43419,2.0712 -2.43419,7.19581 V 147.62 h -1.96443 v -23.91485 h 1.96443 v 4.48403 q 1.04628,-2.17795 2.75448,-3.33099 2.5196,-1.72956 5.57301,-1.72956 3.54452,0 5.65842,2.41284 2.11391,2.39148 2.11391,7.64421 z m 26.02872,-8.32749 v 2.09255 q -1.77226,-1.08898 -2.9253,-1.47333 -1.98578,-0.61922 -3.80075,-0.61922 -5.16731,0 -7.40933,2.64771 -2.24202,2.64772 -2.24202,8.17803 0,5.57301 2.24202,8.22072 2.24202,2.64772 7.40933,2.64772 1.7082,0 3.3737,-0.46976 1.68685,-0.4484 3.35235,-1.36656 v 1.98579 q -1.64414,0.76869 -3.39505,1.15303 -1.77226,0.38435 -3.50182,0.38435 -5.25272,0 -8.34884,-2.83989 -3.09612,-2.86124 -3.09612,-9.7154 0,-6.85417 3.09612,-9.71541 3.09612,-2.83989 8.34884,-2.83989 1.7082,0 3.62993,0.49111 1.92173,0.46976 3.26694,1.23845 z m 26.30634,9.82217 v 1.23844 H 833.1889 q 0,5.76519 2.24202,8.07126 2.47689,2.56231 7.36662,2.56231 1.28116,0 3.39506,-0.55517 2.13525,-0.55516 4.2278,-1.6655 v 2.0712 q -2.1139,0.89681 -4.33457,1.36656 -2.22066,0.46976 -3.52316,0.46976 -5.53031,0 -8.32749,-2.98936 -3.03207,-3.18152 -3.03207,-9.33106 0,-6.38441 2.77583,-9.52323 2.83989,-3.26694 7.90044,-3.26694 4.69756,0 7.08905,3.09612 2.37013,3.24559 2.37013,8.45561 z m -1.98579,-0.42705 q 0,-5.0392 -2.26337,-7.34528 -1.90037,-2.04984 -5.16731,-2.04984 -3.56587,0 -5.97871,2.13525 -2.22067,1.98579 -2.66907,7.25987 z m 23.78671,-9.84352 v 2.1566 q -2.0712,-1.15304 -2.58366,-1.28115 -1.49468,-0.36299 -3.71534,-0.42705 -3.3737,0 -5.29543,1.34521 -1.47333,1.11033 -1.47333,3.80075 0,1.81497 1.38792,2.83989 1.47332,1.11033 4.20645,1.7082 l 1.34521,0.29894 q 3.39505,0.74734 5.14596,2.1139 2.02849,1.55873 2.13525,4.05698 0,3.39505 -2.00713,5.31678 -2.13526,1.90038 -6.87552,1.90038 -2.64772,0 -4.01428,-0.36299 -1.64415,-0.46976 -3.45911,-1.13169 V 144.289 q 2.60501,1.49468 3.3737,1.7082 2.1139,0.55517 4.1851,0.55517 3.45911,0 5.10325,-1.43062 1.6655,-1.45197 1.6655,-3.80075 0,-1.96444 -1.11033,-2.86124 -1.60144,-1.28116 -5.10326,-2.09255 l -1.36656,-0.32029 q -3.01071,-0.70463 -4.59079,-1.98579 -1.98579,-1.60144 -1.98579,-3.88616 0,-3.75805 2.39148,-5.40219 2.39149,-1.64415 5.87195,-1.64415 2.968,0 4.09969,0.32029 1.36656,0.38435 2.66907,0.96087 z"
     id="text2"
     stroke="currentColor"
     fill="currentColor"
     style="font-weight:300;font-size:43.73px;font-family:Nexa-Light, Nexa"
     aria-label="Building Memorable Experiences" />
  <path
     id="polyline2"
     stroke="currentColor"
     fill="currentColor"
     style="fill:none;stroke:currentColor;stroke-width:25.64px;stroke-linecap:round;stroke-linejoin:round"
     transform="translate(-112.4,-458.97)"
     d="M 125.22,608.21 193.43,540 125.22,471.79" />
  <path
     id="circle2"
     stroke="currentColor"
     fill="currentColor"
     style="fill:currentColor"
     d="m 134.41,81.029999 a 17.18,17.18 0 0 1 -17.18,17.18 17.18,17.18 0 0 1 -17.18,-17.18 17.18,17.18 0 0 1 17.18,-17.180001 17.18,17.18 0 0 1 17.18,17.180001 z" />
  <path
  stroke="currentColor"
  fill="currentColor"
     d="M 215.97135,52.674544 V 81.190002 H 200.9192 V 76.548923 59.448011 q 0,-6.146294 -0.29268,-8.445928 -0.25087,-2.299633 -0.91985,-3.386733 -0.87804,-1.463403 -2.38326,-2.257822 -1.50521,-0.83623 -3.42854,-0.83623 -4.68289,0 -7.35883,3.637602 -2.67594,3.595791 -2.67594,9.992954 V 81.190002 H 168.89158 V 16.131274 h 14.96852 v 25.086913 q 3.38674,-4.097529 7.19159,-6.020859 3.80484,-1.965141 8.40411,-1.965141 8.11144,0 12.29259,4.975571 4.22296,4.975571 4.22296,14.466786 z m 36.16697,-8.738608 q -4.97557,0 -7.6097,3.595791 -2.59231,3.55398 -2.59231,10.285635 0,6.731655 2.59231,10.327446 2.63413,3.553979 7.6097,3.553979 4.89195,0 7.48426,-3.553979 2.59232,-3.595791 2.59232,-10.327446 0,-6.731655 -2.59232,-10.285635 -2.59231,-3.595791 -7.48426,-3.595791 z m 0,-10.703749 q 12.08353,0 18.857,6.522597 6.81528,6.522597 6.81528,18.062578 0,11.53998 -6.81528,18.062577 -6.77347,6.522598 -18.857,6.522598 -12.12534,0 -18.98243,-6.522598 -6.81528,-6.522597 -6.81528,-18.062577 0,-11.539981 6.81528,-18.062578 6.85709,-6.522597 18.98243,-6.522597 z m 83.62304,19.442357 V 81.190002 H 320.70921 V 76.548923 59.448011 q 0,-6.146294 -0.29268,-8.445928 -0.25087,-2.299633 -0.91985,-3.386733 -0.87804,-1.463403 -2.38326,-2.257822 -1.50521,-0.83623 -3.42854,-0.83623 -4.68289,0 -7.35883,3.637602 -2.67594,3.595791 -2.67594,9.992954 V 81.190002 H 288.68159 V 16.131274 h 14.96852 v 25.086913 q 3.38674,-4.097529 7.19158,-6.020859 3.80485,-1.965141 8.40412,-1.965141 8.11144,0 12.29259,4.975571 4.22296,4.975571 4.22296,14.466786 z m 57.2818,-10.536503 q 2.84318,-4.348398 6.73165,-6.606221 3.93029,-2.299633 8.61318,-2.299633 8.06962,0 12.29259,4.975571 4.22296,4.975571 4.22296,14.466786 V 81.190002 H 409.85139 V 56.772074 q 0.0418,-0.54355 0.0418,-1.128912 0.0418,-0.585361 0.0418,-1.67246 0,-4.975572 -1.4634,-7.191582 -1.4634,-2.257822 -4.7247,-2.257822 -4.26478,0 -6.60622,3.512167 -2.29964,3.512168 -2.38326,10.1602 V 81.190002 H 379.70528 V 56.772074 q 0,-7.776944 -1.33796,-9.992954 -1.33797,-2.257822 -4.76652,-2.257822 -4.30659,0 -6.64803,3.553979 -2.34145,3.512168 -2.34145,10.076577 V 81.190002 H 349.55918 V 34.361098 h 15.05214 v 6.857089 q 2.75956,-3.972094 6.31354,-5.979047 3.5958,-2.006953 7.90238,-2.006953 4.85014,0 8.57136,2.341445 3.72123,2.341445 5.64456,6.564409 z m 66.81479,17.978954 q -4.68289,0 -7.06614,1.588838 -2.34145,1.588838 -2.34145,4.682891 0,2.843183 1.88152,4.473832 1.92333,1.588838 5.31006,1.588838 4.22297,0 7.10796,-3.010429 2.885,-3.052241 2.885,-7.609697 V 60.116995 Z M 482.72886,54.47244 V 81.190002 H 467.6349 V 74.24929 q -3.01043,4.264775 -6.77347,6.229917 -3.76304,1.92333 -9.15672,1.92333 -7.27521,0 -11.83266,-4.222964 -4.51565,-4.264775 -4.51565,-11.038242 0,-8.23687 5.64456,-12.08353 5.68636,-3.84666 17.8117,-3.84666 h 8.82224 v -1.170723 q 0,-3.553979 -2.80138,-5.184628 -2.80137,-1.672461 -8.7386,-1.672461 -4.80833,0 -8.94767,0.961665 -4.13934,0.961665 -7.69332,2.884995 V 35.615443 q 4.80832,-1.170722 9.65846,-1.756084 4.85014,-0.627172 9.70027,-0.627172 12.6689,0 18.27164,5.017382 5.64456,4.975571 5.64456,16.222871 z m 61.00302,-1.797896 V 81.190002 H 528.67973 V 76.548923 59.364388 q 0,-6.062671 -0.29268,-8.362305 -0.25087,-2.299633 -0.91985,-3.386733 -0.87804,-1.463403 -2.38326,-2.257822 -1.50521,-0.83623 -3.42854,-0.83623 -4.68289,0 -7.35883,3.637602 -2.67594,3.595791 -2.67594,9.992954 V 81.190002 H 496.65211 V 34.361098 h 14.96852 v 6.857089 q 3.38674,-4.097529 7.19158,-6.020859 3.80485,-1.965141 8.40412,-1.965141 8.11144,0 12.29259,4.975571 4.22296,4.975571 4.22296,14.466786 z M 619.28531,41.218187 V 16.131274 h 15.05215 v 65.058728 h -15.05215 v -6.773466 q -3.09405,4.139341 -6.81527,6.062671 -3.72123,1.92333 -8.61318,1.92333 -8.65498,0 -14.21591,-6.85709 -5.56094,-6.898901 -5.56094,-17.728085 0,-10.829185 5.56094,-17.686274 5.56093,-6.898901 14.21591,-6.898901 4.85014,0 8.57136,1.965141 3.76304,1.92333 6.85709,6.020859 z m -9.86751,30.313354 q 4.80832,0 7.31701,-3.512168 2.5505,-3.512168 2.5505,-10.202011 0,-6.689844 -2.5505,-10.202012 -2.50869,-3.512168 -7.31701,-3.512168 -4.76652,0 -7.31702,3.512168 -2.50869,3.512168 -2.50869,10.202012 0,6.689843 2.50869,10.202011 2.5505,3.512168 7.31702,3.512168 z m 39.30282,-37.170443 h 14.96852 v 46.828904 h -14.96852 z m 0,-18.229824 h 14.96852 v 12.208965 h -14.96852 z m 61.21206,57.114539 q -3.09405,4.097529 -6.81527,6.020859 -3.72123,1.92333 -8.61318,1.92333 -8.57136,0 -14.1741,-6.731655 -5.60275,-6.773466 -5.60275,-17.226347 0,-10.494692 5.60275,-17.184535 5.60274,-6.731655 14.1741,-6.731655 4.89195,0 8.61318,1.92333 3.72122,1.92333 6.81527,6.06267 v -6.940712 h 15.05215 V 76.4653 q 0,11.289111 -7.14977,17.226348 -7.10796,5.979047 -20.65489,5.979047 -4.39021,0 -8.48774,-0.668984 -4.09753,-0.668984 -8.23687,-2.048765 V 85.287532 q 3.93028,2.257822 7.69332,3.344921 3.76304,1.128911 7.56789,1.128911 7.35882,0 10.78737,-3.219487 3.42854,-3.219487 3.42854,-10.076577 z m -9.86752,-29.142631 q -4.64107,0 -7.23339,3.428545 -2.59231,3.428545 -2.59231,9.700273 0,6.438975 2.50869,9.783896 2.50869,3.303111 7.31701,3.303111 4.68289,0 7.27521,-3.428545 2.59231,-3.428545 2.59231,-9.658462 0,-6.271728 -2.59231,-9.700273 -2.59232,-3.428545 -7.27521,-3.428545 z m 39.30286,-9.742084 h 14.96852 v 46.828904 h -14.96852 z m 0,-18.229824 h 14.96852 v 12.208965 h -14.96852 z m 45.69999,4.93376 v 13.296064 h 15.42845 V 45.064847 H 785.06801 V 64.92532 q 0,3.261299 1.29616,4.432022 1.29615,1.128911 5.14281,1.128911 h 7.69332 v 10.703749 h -12.83613 q -8.86405,0 -12.58527,-3.679414 -3.67942,-3.721225 -3.67942,-12.585268 V 45.064847 h -7.44245 V 34.361098 h 7.44245 V 21.065034 Z m 45.57455,39.051961 q -4.68289,0 -7.06615,1.588838 -2.34144,1.588838 -2.34144,4.682891 0,2.843183 1.88152,4.473832 1.92333,1.588838 5.31006,1.588838 4.22296,0 7.10796,-3.010429 2.88499,-3.052241 2.88499,-7.609697 v -1.714273 z m 22.8709,-5.644555 V 81.190002 H 838.4195 V 74.24929 q -3.01043,4.264775 -6.77346,6.229917 -3.76304,1.92333 -9.15673,1.92333 -7.2752,0 -11.83266,-4.222964 -4.51564,-4.264775 -4.51564,-11.038242 0,-8.23687 5.64455,-12.08353 5.68637,-3.84666 17.81171,-3.84666 h 8.82223 v -1.170723 q 0,-3.553979 -2.80137,-5.184628 -2.80137,-1.672461 -8.73861,-1.672461 -4.80832,0 -8.94766,0.961665 -4.13934,0.961665 -7.69332,2.884995 V 35.615443 q 4.80832,-1.170722 9.65846,-1.756084 4.85013,-0.627172 9.70027,-0.627172 12.66889,0 18.27164,5.017382 5.64455,4.975571 5.64455,16.222871 z m 13.92322,-38.341166 h 14.96853 v 65.058728 h -14.96853 z"
     id="text3"
     style="font-weight:700;font-size:85.63px;font-family:Nexa-ExtraBold, Nexa"
     aria-label="hohman digital" />
  <path
  stroke="currentColor"
  fill="currentColor"
     d="m 170.40609,131.73371 v 14.15673 h 8.00721 q 4.05698,0 6.02141,-1.75091 1.96443,-1.72955 1.96443,-5.33813 0,-3.62994 -1.96443,-5.33814 -1.96443,-1.72955 -6.02141,-1.72955 z m 0,-14.24215 v 12.49124 h 7.47339 q 3.67264,0 5.46625,-1.53738 1.79361,-1.53739 1.79361,-4.74027 0,-3.13882 -1.79361,-4.65485 -1.79361,-1.55874 -5.46625,-1.55874 z m -2.13525,-1.75091 h 9.92893 q 4.37727,0 6.7474,2.04985 2.37013,2.04984 2.37013,5.82924 0,3.11747 -1.21709,4.65485 -1.34521,1.70821 -3.24559,2.32743 2.75448,0.72599 4.1424,2.66907 1.55873,2.17796 1.55873,5.42354 0,4.27051 -2.58366,6.59794 -2.58365,2.32743 -7.34527,2.32743 h -10.35598 z m 27.95047,22.39882 v -14.43432 h 1.96444 v 14.3062 q 0,4.65486 1.49467,6.55523 1.49468,1.90038 4.39863,1.90038 3.39505,0 5.80789,-2.04985 2.43419,-2.07119 2.43419,-7.1958 v -13.51616 h 1.96443 V 147.62 h -1.96443 v -4.48404 q -1.04628,2.17796 -2.75448,3.331 -2.5196,1.72955 -5.57301,1.72955 -3.54452,0 -5.65843,-2.41283 -2.1139,-2.39149 -2.1139,-7.64421 z m 27.92912,-14.43432 h 1.96444 V 147.62 h -1.96444 z m 0,-9.30971 h 1.96444 v 2.69042 h -1.96444 z m 12.19231,0 h 1.96443 V 147.62 h -1.96443 z m 28.03587,14.77596 v -14.77596 h 1.92173 V 147.62 h -1.92173 v -5.42355 q -1.34521,3.11747 -2.92529,4.27051 -2.41284,1.77226 -4.54809,1.77226 -4.24916,0 -7.06769,-3.45911 -2.81854,-3.45911 -2.81854,-9.09618 0,-5.63707 2.81854,-9.09619 2.81853,-3.45911 7.06769,-3.45911 2.13525,0 4.54809,1.77226 1.58008,1.15304 2.92529,4.27051 z m -12.81152,-1.81496 q -2.47689,2.49824 -2.47689,8.32749 0,5.82924 2.47689,8.32749 2.45554,2.49824 5.18867,2.49824 2.66906,0 5.14596,-2.49824 2.45554,-2.49825 2.45554,-8.32749 0,-5.82925 -2.45554,-8.32749 -2.4769,-2.49825 -5.14596,-2.49825 -2.73313,0 -5.18867,2.49825 z m 24.64083,-3.65129 h 1.96443 V 147.62 h -1.96443 z m 0,-9.30971 h 1.96443 v 2.69042 h -1.96443 z m 30.25655,18.79024 V 147.62 h -1.96443 v -14.30621 q 0,-4.65485 -1.49468,-6.55523 -1.49468,-1.90037 -4.39862,-1.90037 -3.39506,0 -5.80789,2.04984 -2.43419,2.0712 -2.43419,7.19581 V 147.62 h -1.96444 v -23.91485 h 1.96444 v 4.48403 q 1.04627,-2.17795 2.75447,-3.33099 2.5196,-1.72956 5.57302,-1.72956 3.54452,0 5.65842,2.41284 2.1139,2.39148 2.1139,7.64421 z m 25.53764,2.19931 q 0,-4.97514 -2.02849,-7.70827 -2.00714,-2.75447 -5.65842,-2.75447 -3.60858,0 -5.63707,2.75447 -2.00714,2.73313 -2.00714,7.70827 0,4.95379 2.00714,7.70827 2.02849,2.73312 5.63707,2.73312 3.65128,0 5.65842,-2.73312 2.02849,-2.75448 2.02849,-7.70827 z m 1.96443,9.267 q 0,7.45204 -2.83988,9.75811 -2.83989,2.30608 -7.19581,2.30608 -2.07119,0 -3.90751,-0.29894 -1.83632,-0.32029 -3.56588,-0.96086 v -2.24202 q 1.72956,0.93951 3.41641,1.38792 1.68685,0.4484 3.43776,0.4484 3.56587,0 6.12818,-1.51603 2.5623,-1.51603 2.5623,-8.17802 v -3.7367 q -0.87545,2.45554 -2.41284,3.86481 -2.34878,2.15661 -5.27407,2.13526 -4.54809,0 -7.08905,-3.20289 -2.54095,-3.22423 -2.54095,-9.05347 0,-5.80789 2.54095,-9.01077 2.54096,-3.22424 7.08905,-3.22424 2.90394,0 4.99649,1.83632 1.62279,1.43062 2.69042,3.82211 v -5.08191 h 1.96443 z m 24.36324,-28.91134 h 2.968 l 8.86131,23.63727 8.904,-23.63727 h 2.94666 V 147.62 h -2.17796 v -27.99318 l -8.19938,21.865 h -2.94665 l -8.17802,-21.865 V 147.62 h -2.17796 z m 54.2995,18.93971 v 1.23844 h -18.14965 q 0,5.76519 2.24201,8.07126 2.4769,2.56231 7.36663,2.56231 1.28115,0 3.39505,-0.55517 2.13526,-0.55516 4.22781,-1.6655 v 2.0712 q -2.11391,0.89681 -4.33457,1.36656 -2.22066,0.46976 -3.52317,0.46976 -5.53031,0 -8.32749,-2.98936 -3.03206,-3.18152 -3.03206,-9.33106 0,-6.38441 2.77583,-9.52323 2.83989,-3.26694 7.90044,-3.26694 4.69756,0 7.08904,3.09612 2.37013,3.24559 2.37013,8.45561 z m -1.98578,-0.42705 q 0,-5.0392 -2.26337,-7.34528 -1.90038,-2.04984 -5.16732,-2.04984 -3.56587,0 -5.97871,2.13525 -2.22066,1.98579 -2.66906,7.25987 z m 27.45937,-5.33814 q 1.11033,-2.88259 3.50182,-4.35592 2.26337,-1.43062 5.38084,-1.43062 3.11747,0 4.99649,2.19931 1.90038,2.17796 1.90038,7.85774 V 147.62 h -1.94309 v -14.30621 q 0,-4.95378 -1.36656,-6.70469 -1.36656,-1.75091 -3.62993,-1.75091 -3.28829,0 -5.80789,2.02849 -2.75448,2.19931 -2.75448,7.21716 V 147.62 h -1.96443 v -14.30621 q 0,-4.78296 -1.32386,-6.61928 -1.32386,-1.83632 -3.67264,-1.83632 -3.28829,0 -5.80789,2.04984 -2.75447,2.19931 -2.75447,7.19581 V 147.62 h -1.96444 v -23.91485 h 1.96444 v 4.48403 q 1.04627,-2.34877 3.24558,-3.71534 2.22067,-1.34521 5.4449,-1.34521 2.09255,0 4.03563,1.40927 1.49468,1.08898 2.5196,4.37727 z m 39.60896,-1.11033 q -2.1139,-2.94665 -5.76519,-2.94665 -3.65128,0 -5.76518,2.9253 -2.13526,2.90394 -2.13526,7.85773 0,5.08191 2.1139,7.98585 2.1139,2.9253 5.78654,2.9253 3.65129,0 5.76519,-2.9253 2.13525,-2.94665 2.13525,-7.98585 0,-4.88973 -2.13525,-7.83638 z m -5.78654,-4.67621 q 4.56944,0 7.21716,3.41641 2.66906,3.43776 2.66906,9.11753 0,5.87195 -2.66906,9.26701 -2.64772,3.4164 -7.21716,3.4164 -4.61215,0 -7.28122,-3.39505 -2.64771,-3.39506 -2.64771,-9.28836 0,-5.74383 2.66907,-9.13888 2.66906,-3.39506 7.25986,-3.39506 z m 31.30282,2.26337 q -0.46976,-0.23488 -1.28115,-0.4057 -0.72599,-0.12811 -1.83632,-0.12811 -3.62993,0 -6.02142,2.69042 -1.87902,2.17796 -1.87902,7.47339 v 12.598 h -1.92173 v -23.91485 h 1.92173 v 4.48403 q 0.96086,-1.92172 2.69042,-3.24558 2.39148,-1.81497 5.63707,-1.81497 0.83275,0 1.45197,0.0641 0.64058,0 1.23845,0.14947 z m 14.56244,8.73319 q -4.74026,0 -6.83281,1.68685 -2.09255,1.68685 -2.09255,4.93244 0,3.16017 1.72956,4.48403 1.72955,1.32386 4.09969,1.32386 4.48403,0 6.44846,-3.80075 1.98579,-3.80076 1.98579,-7.1531 v -1.47333 z m 7.32393,-0.14947 V 147.62 h -1.94309 v -6.49118 q -1.64414,4.76162 -4.35591,6.06412 -2.15661,1.04628 -4.29186,1.04628 -3.56588,0 -5.61572,-1.90038 -2.04985,-1.92173 -2.04985,-5.63707 0,-3.71534 2.66907,-5.936 2.66907,-2.24202 8.73319,-2.24202 h 4.86838 v -0.38435 q 0,-3.18152 -1.81497,-5.23137 -1.79361,-2.04984 -5.936,-2.04984 -2.04985,0 -4.1851,0.76869 -1.36656,0.49111 -3.54452,1.98579 v -2.11391 q 1.90037,-1.17438 3.54452,-1.66549 2.39148,-0.70464 4.5908,-0.70464 4.2278,0 6.96092,2.56231 2.37014,2.19931 2.37014,8.28478 z m 24.68352,10.0357 q 2.47689,-2.49825 2.47689,-8.32749 0,-5.82925 -2.47689,-8.32749 -2.45554,-2.49825 -5.18867,-2.49825 -2.66907,0 -5.14596,2.49825 -2.45554,2.49824 -2.45554,8.32749 0,5.82924 2.45554,8.32749 2.47689,2.49824 5.14596,2.49824 2.73313,0 5.18867,-2.49824 z M 536.98648,129.1714 q 1.34521,-3.11747 2.92529,-4.27051 2.41284,-1.77226 4.54809,-1.77226 4.24916,0 7.06769,3.45911 2.81854,3.45912 2.81854,9.09619 0,5.63707 -2.81854,9.09618 -2.81853,3.45911 -7.06769,3.45911 -2.13525,0 -4.54809,-1.77226 -1.58008,-1.15304 -2.92529,-4.27051 V 147.62 h -1.92173 v -33.22456 h 1.92173 z m 25.79386,-14.77596 h 1.96444 V 147.62 h -1.96444 z m 30.79037,20.28492 v 1.23844 h -18.14966 q 0,5.76519 2.24201,8.07126 2.4769,2.56231 7.36663,2.56231 1.28115,0 3.39505,-0.55517 2.13526,-0.55516 4.22781,-1.6655 v 2.0712 q -2.1139,0.89681 -4.33457,1.36656 -2.22066,0.46976 -3.52317,0.46976 -5.53031,0 -8.32749,-2.98936 -3.03206,-3.18152 -3.03206,-9.33106 0,-6.38441 2.77583,-9.52323 2.83989,-3.26694 7.90044,-3.26694 4.69756,0 7.08904,3.09612 2.37014,3.24559 2.37014,8.45561 z m -1.98579,-0.42705 q 0,-5.0392 -2.26337,-7.34528 -1.90038,-2.04984 -5.16731,-2.04984 -3.56588,0 -5.97871,2.13525 -2.22067,1.98579 -2.66907,7.25987 z m 24.51273,-18.51266 h 18.02154 v 1.77227 h -15.84358 v 12.235 h 15.18165 v 1.72956 h -15.18165 v 14.41296 h 16.22793 V 147.62 h -18.40589 z m 45.11789,7.9645 -8.64778,11.48767 9.28835,12.42718 h -2.34878 l -8.11396,-10.8898 -8.19938,10.8898 h -2.34877 l 9.35241,-12.51259 -8.49831,-11.40226 h 2.32742 l 7.36663,9.92893 7.47339,-9.92893 z m 9.99301,18.4913 v 14.51973 h -1.92173 v -33.01103 h 1.92173 v 5.46625 q 1.34521,-3.11747 2.9253,-4.27051 2.41284,-1.77226 4.54809,-1.77226 4.24916,0 7.06769,3.45911 2.81854,3.45912 2.81854,9.09619 0,5.63707 -2.81854,9.09618 -2.81853,3.45911 -7.06769,3.45911 -2.13525,0 -4.54809,-1.77226 -1.58009,-1.15304 -2.9253,-4.27051 z m 12.81152,1.81497 q 2.4769,-2.49825 2.4769,-8.32749 0,-5.82925 -2.4769,-8.32749 -2.45554,-2.49825 -5.18866,-2.49825 -2.66907,0 -5.14596,2.49825 -2.45555,2.49824 -2.45555,8.32749 0,5.82924 2.45555,8.32749 2.47689,2.49824 5.14596,2.49824 2.73312,0 5.18866,-2.49824 z m 31.62312,-9.33106 v 1.23844 h -18.14966 q 0,5.76519 2.24201,8.07126 2.4769,2.56231 7.36663,2.56231 1.28115,0 3.39505,-0.55517 2.13526,-0.55516 4.22781,-1.6655 v 2.0712 q -2.11391,0.89681 -4.33457,1.36656 -2.22066,0.46976 -3.52317,0.46976 -5.53031,0 -8.32749,-2.98936 -3.03206,-3.18152 -3.03206,-9.33106 0,-6.38441 2.77583,-9.52323 2.83989,-3.26694 7.90044,-3.26694 4.69756,0 7.08904,3.09612 2.37014,3.24559 2.37014,8.45561 z m -1.98579,-0.42705 q 0,-5.0392 -2.26337,-7.34528 -1.90038,-2.04984 -5.16731,-2.04984 -3.56588,0 -5.97872,2.13525 -2.22066,1.98579 -2.66906,7.25987 z m 23.23154,-8.86131 q -0.46976,-0.23488 -1.28116,-0.4057 -0.72598,-0.12811 -1.83631,-0.12811 -3.62994,0 -6.02142,2.69042 -1.87902,2.17796 -1.87902,7.47339 v 12.598 h -1.92173 v -23.91485 h 1.92173 v 4.48403 q 0.96086,-1.92172 2.69042,-3.24558 2.39148,-1.81497 5.63707,-1.81497 0.83275,0 1.45197,0.0641 0.64058,0 1.23845,0.14947 z m 4.95377,-1.68685 h 1.96443 V 147.62 h -1.96443 z m 0,-9.30971 h 1.96443 v 2.69042 h -1.96443 z m 30.83307,20.28492 v 1.23844 h -18.14966 q 0,5.76519 2.24202,8.07126 2.47689,2.56231 7.36662,2.56231 1.28115,0 3.39506,-0.55517 2.13525,-0.55516 4.2278,-1.6655 v 2.0712 q -2.1139,0.89681 -4.33457,1.36656 -2.22066,0.46976 -3.52317,0.46976 -5.5303,0 -8.32749,-2.98936 -3.03206,-3.18152 -3.03206,-9.33106 0,-6.38441 2.77583,-9.52323 2.83989,-3.26694 7.90044,-3.26694 4.69756,0 7.08905,3.09612 2.37013,3.24559 2.37013,8.45561 z m -1.98579,-0.42705 q 0,-5.0392 -2.26337,-7.34528 -1.90037,-2.04984 -5.16731,-2.04984 -3.56588,0 -5.97871,2.13525 -2.22067,1.98579 -2.66907,7.25987 z m 28.31351,-1.06763 V 147.62 h -1.96444 v -14.30621 q 0,-4.65485 -1.49468,-6.55523 -1.49467,-1.90037 -4.39862,-1.90037 -3.39505,0 -5.80789,2.04984 -2.43419,2.0712 -2.43419,7.19581 V 147.62 h -1.96443 v -23.91485 h 1.96443 v 4.48403 q 1.04628,-2.17795 2.75448,-3.33099 2.5196,-1.72956 5.57301,-1.72956 3.54452,0 5.65842,2.41284 2.11391,2.39148 2.11391,7.64421 z m 26.02872,-8.32749 v 2.09255 q -1.77226,-1.08898 -2.9253,-1.47333 -1.98578,-0.61922 -3.80075,-0.61922 -5.16731,0 -7.40933,2.64771 -2.24202,2.64772 -2.24202,8.17803 0,5.57301 2.24202,8.22072 2.24202,2.64772 7.40933,2.64772 1.7082,0 3.3737,-0.46976 1.68685,-0.4484 3.35235,-1.36656 v 1.98579 q -1.64414,0.76869 -3.39505,1.15303 -1.77226,0.38435 -3.50182,0.38435 -5.25272,0 -8.34884,-2.83989 -3.09612,-2.86124 -3.09612,-9.7154 0,-6.85417 3.09612,-9.71541 3.09612,-2.83989 8.34884,-2.83989 1.7082,0 3.62993,0.49111 1.92173,0.46976 3.26694,1.23845 z m 26.30634,9.82217 v 1.23844 H 833.1889 q 0,5.76519 2.24202,8.07126 2.47689,2.56231 7.36662,2.56231 1.28116,0 3.39506,-0.55517 2.13525,-0.55516 4.2278,-1.6655 v 2.0712 q -2.1139,0.89681 -4.33457,1.36656 -2.22066,0.46976 -3.52316,0.46976 -5.53031,0 -8.32749,-2.98936 -3.03207,-3.18152 -3.03207,-9.33106 0,-6.38441 2.77583,-9.52323 2.83989,-3.26694 7.90044,-3.26694 4.69756,0 7.08905,3.09612 2.37013,3.24559 2.37013,8.45561 z m -1.98579,-0.42705 q 0,-5.0392 -2.26337,-7.34528 -1.90037,-2.04984 -5.16731,-2.04984 -3.56587,0 -5.97871,2.13525 -2.22067,1.98579 -2.66907,7.25987 z m 23.78671,-9.84352 v 2.1566 q -2.0712,-1.15304 -2.58366,-1.28115 -1.49468,-0.36299 -3.71534,-0.42705 -3.3737,0 -5.29543,1.34521 -1.47333,1.11033 -1.47333,3.80075 0,1.81497 1.38792,2.83989 1.47332,1.11033 4.20645,1.7082 l 1.34521,0.29894 q 3.39505,0.74734 5.14596,2.1139 2.02849,1.55873 2.13525,4.05698 0,3.39505 -2.00713,5.31678 -2.13526,1.90038 -6.87552,1.90038 -2.64772,0 -4.01428,-0.36299 -1.64415,-0.46976 -3.45911,-1.13169 V 144.289 q 2.60501,1.49468 3.3737,1.7082 2.1139,0.55517 4.1851,0.55517 3.45911,0 5.10325,-1.43062 1.6655,-1.45197 1.6655,-3.80075 0,-1.96444 -1.11033,-2.86124 -1.60144,-1.28116 -5.10326,-2.09255 l -1.36656,-0.32029 q -3.01071,-0.70463 -4.59079,-1.98579 -1.98579,-1.60144 -1.98579,-3.88616 0,-3.75805 2.39148,-5.40219 2.39149,-1.64415 5.87195,-1.64415 2.968,0 4.09969,0.32029 1.36656,0.38435 2.66907,0.96087 z"
     id="text4"
     style="font-weight:300;font-size:43.73px;font-family:Nexa-Light, Nexa"
     aria-label="Building Memorable Experiences" />
</svg>
