<svg
   version="1.1"
   viewBox="-5 -10 90.125 98.9412"
   id="svg1"
   sodipodi:docname="lightbulb.svg"
   width="90.125"
   height="98.9412"
   inkscape:version="1.3.2 (091e20e, 2023-11-25, custom)"
   xmlns:inkscape="http://www.inkscape.org/namespaces/inkscape"
   xmlns:sodipodi="http://sodipodi.sourceforge.net/DTD/sodipodi-0.dtd"
   xmlns="http://www.w3.org/2000/svg"
   xmlns:svg="http://www.w3.org/2000/svg">

  <path
     stroke="currentColor"
     fill="currentColor"
     d="m 57.7585,53.6403 c 2.5,-2.3789 4.5195,-5.2578 5.8945,-8.4766 1.3242,-3.0938 2.0625,-6.5078 2.0625,-10.102 0,-7.082 -2.8711,-13.492 -7.5117,-18.137 -4.6406,-4.6406 -11.051,-7.5117 -18.137,-7.5117 -7.082,0 -13.492,2.8711 -18.137,7.5117 -4.6406,4.6406 -7.5117,11.055 -7.5117,18.137 0,3.5938 0.73438,7.0078 2.0625,10.102 1.3789,3.2148 3.3945,6.0938 5.8945,8.4766 1.6055,1.5273 2.8203,3.2539 3.6406,5.168 0.64453,1.5039 1.0391,3.1016 1.1758,4.7891 h 25.758 c 0.13672,-1.6875 0.53516,-3.2852 1.1758,-4.7891 0.82031,-1.9102 2.0352,-3.6406 3.6406,-5.168 z m -30.516,14.543 v 10.551 c 0,1.4023 0.57422,2.6797 1.5039,3.6055 0.92578,0.92578 2.2031,1.5039 3.6055,1.5039 h 15.422 c 1.4023,0 2.6797,-0.57422 3.6055,-1.5039 0.92578,-0.92578 1.5039,-2.2031 1.5039,-3.6055 v -10.551 h -25.645 z m -10.293,-68.578 c -0.63281,-1.0938 -0.26172,-2.4961 0.83594,-3.1289 1.0938,-0.63281 2.4961,-0.26172 3.1289,0.83594 l 3.0039,5.2031 c 0.63281,1.0938 0.26172,2.4922 -0.83594,3.1289 C 21.9885,6.27715 20.5862,5.90606 19.9534,4.8084 Z M 2.3125,15.9103 C 1.2187,15.27749 0.8437,13.8751 1.47656,12.7814 c 0.63281,-1.0938 2.0352,-1.4688 3.1289,-0.83594 l 5.2031,3.0039 c 1.0938,0.63281 1.4688,2.0352 0.83594,3.1289 -0.63286,1.0937 -2.0352,1.4688 -3.1289,0.83594 z m -4.5156,21.445 c -1.2656,0 -2.2969,-1.0273 -2.2969,-2.2969 0,-1.2695 1.0273,-2.2969 2.2969,-2.2969 h 6.0078 c 1.2695,0 2.2969,1.0273 2.2969,2.2969 0,1.2656 -1.0273,2.2969 -2.2969,2.2969 z m 6.8008,20.82 c -1.0938,0.62891 -2.4883,0.25391 -3.1211,-0.84375 -0.62891,-1.0938 -0.25391,-2.4883 0.84375,-3.1211 l 5.2031,-3.0039 c 1.0938,-0.62891 2.4922,-0.25391 3.1211,0.84375 0.62891,1.0938 0.25391,2.4883 -0.84375,3.1211 z m 73.207,-3.9648 c 1.0938,0.62891 1.4727,2.0273 0.84375,3.1211 -0.62891,1.0938 -2.0234,1.4727 -3.1211,0.84375 l -5.2031,-3.0039 c -1.0938,-0.62891 -1.4727,-2.0234 -0.84375,-3.1211 0.62891,-1.0938 2.0234,-1.4727 3.1211,-0.84375 z m 4.5234,-21.445 c 1.2656,0 2.2969,1.0273 2.2969,2.2969 0,1.2656 -1.0273,2.2969 -2.2969,2.2969 h -6.0078 c -1.2695,0 -2.2969,-1.0273 -2.2969,-2.2969 0,-1.2696 1.0273,-2.2969 2.2969,-2.2969 z m -6.8086,-20.816 c 1.0938,-0.63281 2.4961,-0.26172 3.1289,0.83594 0.63281,1.0938 0.26172,2.4961 -0.83594,3.1289 l -5.2031,3.0039 c -1.0938,0.63281 -2.4961,0.26172 -3.1289,-0.83594 -0.63281,-1.0938 -0.26172,-2.4961 0.83594,-3.1289 z m -16.305,-14.637 c 0.63281,-1.0938 2.0352,-1.4688 3.1289,-0.83594 1.0938,0.63281 1.4688,2.0352 0.83594,3.1289 l -3.0039,5.2031 c -0.63281,1.0938 -2.0352,1.4688 -3.1289,0.83594 -1.0938,-0.63281 -1.4688,-2.0352 -0.83594,-3.1289 z m -21.445,-4.5156 c 0,-1.2656 1.0273,-2.2969 2.2969,-2.2969 1.2656,0 2.2969,1.0273 2.2969,2.2969 v 6.0078 c 0,1.2695 -1.0273,2.2969 -2.2969,2.2969 -1.2656,0 -2.2969,-1.0273 -2.2969,-2.2969 z m 30.098,54.16 c -1.6289,3.7969 -4.0078,7.1953 -6.9531,10 -1.1484,1.0938 -2.0117,2.3125 -2.5781,3.6406 -0.57031,1.3281 -0.85938,2.7969 -0.85938,4.3945 v 13.746 c 0,2.6719 -1.0898,5.0977 -2.8477,6.8516 -1.7578,1.7578 -4.1836,2.8516 -6.8516,2.8516 h -15.422 c -2.6719,0 -5.0938,-1.0938 -6.8516,-2.8516 -1.7578,-1.7539 -2.8477,-4.1836 -2.8477,-6.8516 V 64.992 c 0,-1.5977 -0.28906,-3.0664 -0.85938,-4.3945 -0.57031,-1.3281 -1.4297,-2.5508 -2.5781,-3.6406 -2.9453,-2.8047 -5.3281,-6.1992 -6.9531,-10 -1.5664,-3.6562 -2.4375,-7.6797 -2.4375,-11.895 0,-8.3477 3.3828,-15.91 8.8555,-21.383 5.4727,-5.4727 13.031,-8.8555 21.383,-8.8555 8.3477,0 15.91,3.3828 21.383,8.8555 5.4727,5.4727 8.8555,13.031 8.8555,21.383 0,4.2148 -0.86719,8.2344 -2.4375,11.895 z"
     id="path1" />
</svg>
