<?xml version="1.0" encoding="UTF-8" standalone="no"?>
<svg
   height="24"
   viewBox="0 -960 960 960"
   width="24"
   fill="#e3e3e3"
   version="1.1"
   id="svg1"
   sodipodi:docname="moon.svg"
   inkscape:version="1.3.2 (091e20e, 2023-11-25, custom)"
   xmlns:inkscape="http://www.inkscape.org/namespaces/inkscape"
   xmlns:sodipodi="http://sodipodi.sourceforge.net/DTD/sodipodi-0.dtd"
   xmlns="http://www.w3.org/2000/svg"
   xmlns:svg="http://www.w3.org/2000/svg">
  <sodipodi:namedview
     id="namedview1"
     pagecolor="#ffffff"
     bordercolor="#000000"
     borderopacity="0.25"
     inkscape:showpageshadow="2"
     inkscape:pageopacity="0.0"
     inkscape:pagecheckerboard="0"
     inkscape:deskcolor="#d1d1d1"
     inkscape:zoom="14.674362"
     inkscape:cx="1.9762358"
     inkscape:cy="19.046824"
     inkscape:window-width="1920"
     inkscape:window-height="1009"
     inkscape:window-x="2552"
     inkscape:window-y="-8"
     inkscape:window-maximized="1"
     inkscape:current-layer="svg1" />
  <defs
     id="defs1" />
  <path
     id="body"
     style="fill:#fff9f9;stroke:#000000;stroke-width:62.64;stroke-linecap:round;stroke-linejoin:round;stroke-dasharray:none"
     d="M 812.69565,-380.63279 C 757.77393,-200.99199 567.62355,-99.887271 387.9828,-154.80894 208.342,-209.73065 107.23723,-399.881 162.15892,-579.5218 c 53.95635,-176.48313 245.07211,-280.74555 424.71289,-225.82383 -341.21152,156.09407 -130.583,579.58178 225.82384,424.71284 z" />
  <path
     d="m 572.90288,-662.8315 42.45796,18.7557 c 10.09921,4.4313 18.03433,12.57251 22.36255,22.56868 l 17.62213,40.91218 c 1.44276,3.29769 5.9771,3.29769 7.41985,0 l 18.13738,-41.63356 c 4.43128,-10.09922 12.46944,-18.13738 22.46562,-22.46561 l 41.63354,-18.13739 c 3.19466,-1.44274 3.19466,-5.97709 0,-7.41985 l -41.63354,-18.13737 c -10.09923,-4.43129 -18.13738,-12.46946 -22.46562,-22.46562 l -18.13738,-41.63355 c -1.44275,-3.19464 -5.97709,-3.19464 -7.41985,0 l -18.13737,41.63355 c -4.4313,10.09921 -12.46946,18.13737 -22.46565,22.46562 l -41.73658,18.24043 c -3.19465,1.44274 -3.19465,5.9771 0,7.41983 z"
     id="path3"
     style="fill:#000000;fill-opacity:1;stroke-width:10.3054" />
  <path
     d="m 718.16429,-558.72739 33.63479,14.85809 c 8.0005,3.51043 14.28662,9.95982 17.7154,17.87869 l 13.96008,32.41023 c 1.14294,2.6124 4.735,2.6124 5.87793,0 l 14.36826,-32.9817 c 3.51042,-8.00051 9.87817,-14.36826 17.79705,-17.79704 l 32.98173,-14.36827 c 2.5307,-1.14292 2.5307,-4.73499 0,-5.87793 l -32.98173,-14.36825 c -8.00051,-3.51043 -14.36826,-9.87819 -17.79705,-17.79705 l -14.36826,-32.9817 c -1.14293,-2.53076 -4.73499,-2.53076 -5.87793,0 l -14.36825,32.9817 c -3.51043,8.0005 -9.87819,14.36825 -17.79707,17.79705 l -33.06332,14.44989 c -2.53077,1.14293 -2.53077,4.735 0,5.87792 z"
     id="path3-0"
     style="fill:#000000;fill-opacity:1;stroke-width:8.1638" />
</svg>
