<?xml version="1.0" encoding="UTF-8" standalone="no"?>
<svg
   fill="none"
   viewBox="0 0 20 20.0144"
   x="0px"
   y="0px"
   version="1.1"
   id="svg3"
   sodipodi:docname="outgoing_link.svg"
   width="20"
   height="20.0144"
   inkscape:version="1.3.2 (091e20e, 2023-11-25, custom)"
   xmlns:inkscape="http://www.inkscape.org/namespaces/inkscape"
   xmlns:sodipodi="http://sodipodi.sourceforge.net/DTD/sodipodi-0.dtd"
   xmlns="http://www.w3.org/2000/svg"
   xmlns:svg="http://www.w3.org/2000/svg">
  <defs
     id="defs3" />
  <sodipodi:namedview
     id="namedview3"
     pagecolor="#ffffff"
     bordercolor="#000000"
     borderopacity="0.25"
     inkscape:showpageshadow="2"
     inkscape:pageopacity="0.0"
     inkscape:pagecheckerboard="0"
     inkscape:deskcolor="#d1d1d1"
     inkscape:zoom="27.1"
     inkscape:cx="10.01845"
     inkscape:cy="13.00738"
     inkscape:window-width="2560"
     inkscape:window-height="1009"
     inkscape:window-x="-8"
     inkscape:window-y="-8"
     inkscape:window-maximized="1"
     inkscape:current-layer="svg3" />
  <clipPath
     id="a">
    <path
       d="M 0,0 H 24 V 24 H 0 Z"
       id="path1" />
  </clipPath>
  <g
     clip-path="url(#a)"
     id="g2"
     transform="translate(-1.9999997,-1.9856)">
    <path
       clip-rule="evenodd"
       d="m 21.9855,2.9856 c 0,-0.55229 -0.4477,-1 -1,-1 h -7.071 c -0.5523,0 -1,0.44771 -1,1 0,0.55228 0.4477,1 1,1 h 4.6568 l -6.7781,6.7782 c -0.3906,0.3905 -0.3906,1.0237 0,1.4142 0.3905,0.3905 1.0236,0.3905 1.4142,0 l 6.7781,-6.77819 v 4.65689 c 0,0.5522 0.4478,1 1,1 0.5523,0 1,-0.4478 1,-1 z M 7.7587,22 h 8.4826 10e-5 c 0.8049,0 1.4693,0 2.0104,-0.0442 0.5621,-0.0459 1.0788,-0.1445 1.5642,-0.3918 0.7526,-0.3834 1.3645,-0.9954 1.748,-1.748 0.2473,-0.4854 0.3459,-1.0021 0.3918,-1.5642 C 22,17.7107 22,17.0463 22,16.2413 V 15.5 c 0,-0.5523 -0.4477,-1 -1,-1 -0.5523,0 -1,0.4477 -1,1 v 0.7 c 0,0.8566 -8e-4,1.4389 -0.0375,1.889 -0.0359,0.4384 -0.1008,0.6626 -0.1805,0.819 -0.1917,0.3763 -0.4977,0.6823 -0.874,0.874 -0.1564,0.0797 -0.3806,0.1446 -0.819,0.1805 C 17.6389,19.9992 17.0566,20 16.2,20 H 7.8 C 6.94342,20 6.36113,19.9992 5.91104,19.9625 5.47262,19.9266 5.24842,19.8617 5.09202,19.782 4.7157,19.5903 4.40973,19.2843 4.21799,18.908 4.1383,18.7516 4.07337,18.5274 4.03755,18.089 4.00078,17.6389 4,17.0566 4,16.2 V 7.80002 C 4,6.94344 4.00078,6.36115 4.03755,5.91106 4.07337,5.47264 4.1383,5.24844 4.21799,5.09204 4.40973,4.71571 4.7157,4.40975 5.09202,4.21801 5.24842,4.13832 5.47262,4.07339 5.91104,4.03757 6.36113,4.0008 6.94342,4.00002 7.8,4.00002 h 0.7 c 0.55229,0 1,-0.44772 1,-1 0,-0.55228 -0.44771,-1 -1,-1 H 7.75868 C 6.95372,2.00001 6.28937,2 5.74818,2.04421 5.18608,2.09014 4.66937,2.1887 4.18404,2.43599 3.43139,2.81949 2.81947,3.43141 2.43598,4.18406 2.18868,4.66939 2.09012,5.1861 2.04419,5.74819 1.99998,6.28938 1.99999,6.95374 2,7.75869 v 8.48261 c -1e-5,0.805 -2e-5,1.4694 0.04419,2.0105 0.04593,0.5621 0.14449,1.0788 0.39178,1.5642 0.3835,0.7526 0.99542,1.3646 1.74807,1.748 0.48533,0.2473 1.00204,0.3459 1.56413,0.3918 C 6.28937,22 6.95373,22 7.7587,22 Z"
       fill="#000000"
       fill-rule="evenodd"
       id="path2" />
  </g>
  <text
     x="-1.9999996"
     y="37.0144"
     fill="#000000"
     font-size="5px"
     font-weight="bold"
     font-family="'Helvetica Neue', Helvetica, Arial-Unicode, Arial, Sans-serif"
     id="text2">Created by jenya</text>
  <text
     x="-1.9999996"
     y="42.0144"
     fill="#000000"
     font-size="5px"
     font-weight="bold"
     font-family="'Helvetica Neue', Helvetica, Arial-Unicode, Arial, Sans-serif"
     id="text3">from the Noun Project</text>
</svg>
