<?xml version="1.0" encoding="UTF-8" standalone="no"?>
<svg
   version="1.1"
   viewBox="-5 -10 90 67.500397"
   id="svg2"
   sodipodi:docname="paid_media.svg"
   width="90"
   height="67.500397"
   inkscape:version="1.3.2 (091e20e, 2023-11-25, custom)"
   inkscape:export-filename="paid_media.png"
   inkscape:export-xdpi="96"
   inkscape:export-ydpi="96"
   xmlns:inkscape="http://www.inkscape.org/namespaces/inkscape"
   xmlns:sodipodi="http://sodipodi.sourceforge.net/DTD/sodipodi-0.dtd"
   xmlns="http://www.w3.org/2000/svg"
   xmlns:svg="http://www.w3.org/2000/svg">
  <defs
     id="defs2" />
  <sodipodi:namedview
     id="namedview2"
     pagecolor="#ffffff"
     bordercolor="#000000"
     borderopacity="0.25"
     inkscape:showpageshadow="2"
     inkscape:pageopacity="0.0"
     inkscape:pagecheckerboard="0"
     inkscape:deskcolor="#d1d1d1"
     showgrid="false"
     inkscape:zoom="6.0222222"
     inkscape:cx="44.916974"
     inkscape:cy="41.263838"
     inkscape:window-width="2560"
     inkscape:window-height="1009"
     inkscape:window-x="-8"
     inkscape:window-y="-8"
     inkscape:window-maximized="1"
     inkscape:current-layer="svg2" />
  <path
     d="m 47.5,40.6254 c 0,-11.371 9.2539,-20.625 20.625,-20.625 2.6484,0 5.1719,0.51953 7.5,1.4336 V -2.5 c 0,-4.1406 -3.3594,-7.5 -7.5,-7.5 H 2.5 c -4.1406,0 -7.5,3.3594 -7.5,7.5 v 43.125 c 0,4.1406 3.3594001,7.5 7.5,7.5 h 46.434 c -0.91406,-2.3281 -1.4336,-4.8516 -1.4336,-7.5 z m -0.89453,-18.316 -17.855,10.309 c -2.5,1.4414 -5.625,-0.35938 -5.625,-3.2461 V 8.7553 c 0,-2.8867 3.125,-4.6914 5.625,-3.2461 l 17.855,10.309 c 2.5,1.4414 2.5,5.0508 0,6.4961 z"
     id="path1" />
  <path
     d="m 68.125,23.7504 c -9.3203,0 -16.875,7.5547 -16.875,16.875 0,9.3203 7.5547,16.875 16.875,16.875 9.3203,0 16.875,-7.5547 16.875,-16.875 0,-9.3203 -7.5547,-16.875 -16.875,-16.875 z m 2.668,24.672 c -0.25781,0.125 -0.52734,0.19141 -0.79297,0.28125 v 1.2969 c 0,1.0352 -0.83984,1.875 -1.875,1.875 -1.03516,0 -1.875,-0.83984 -1.875,-1.875 v -1.1914 c -1.0391,-0.26953 -2.0664,-0.75391 -3.0195,-1.4883 -0.82031,-0.63281 -0.96875,-1.8125 -0.33984,-2.6289 0.63672,-0.82031 1.8125,-0.96875 2.6289,-0.33984 1.7695,1.3672 3.1211,0.94531 3.6172,0.70313 0.59375,-0.29297 0.85938,-0.73438 0.85938,-0.95703 0,-0.54297 -0.41016,-0.85547 -1.918,-1.4609 -0.27344,-0.10938 -0.52734,-0.21094 -0.74219,-0.3125 -0.14453,-0.06641 -0.3125,-0.13281 -0.5,-0.20703 -1.4062,-0.5625 -4.3398,-1.7305 -4.3398,-4.9688 0,-1.7422 1.1602,-3.4375 2.957,-4.3203 0.25781,-0.12891 0.52344,-0.22656 0.79297,-0.31641 v -1.2617 c 0,-1.0352 0.83984,-1.875 1.875,-1.875 1.03516,0 1.875,0.83984 1.875,1.875 v 1.1758 c 1.0391,0.26953 2.0664,0.76562 3.0195,1.5039 0.82031,0.63281 0.96875,1.8125 0.33984,2.6289 -0.63281,0.82031 -1.8086,0.97266 -2.6289,0.33984 -1.7734,-1.3672 -3.1211,-0.94922 -3.6172,-0.70313 -0.59375,0.29297 -0.85938,0.73438 -0.85938,0.95703 0,0.58984 0.66406,0.96484 1.9766,1.4844 0.25781,0.10156 0.49219,0.19531 0.6875,0.28516 0.16406,0.07813 0.35938,0.15234 0.56641,0.23438 1.3867,0.55859 4.2734,1.7148 4.2734,4.9414 0,1.7422 -1.1602,3.4375 -2.957,4.3203 z"
     id="path2" />
</svg>
