<?xml version="1.0" encoding="UTF-8" standalone="no"?>
<svg
   id="a"
   data-name="Layer 1"
   width="33.850105"
   height="31.829155"
   viewBox="0 0 181.60333 171.34"
   version="1.1"
   sodipodi:docname="salsify.svg"
   inkscape:version="1.3.2 (091e20e, 2023-11-25, custom)"
   xmlns:inkscape="http://www.inkscape.org/namespaces/inkscape"
   xmlns:sodipodi="http://sodipodi.sourceforge.net/DTD/sodipodi-0.dtd"
   xmlns="http://www.w3.org/2000/svg"
   xmlns:svg="http://www.w3.org/2000/svg">
  <defs
     id="defs1" />
  <sodipodi:namedview
     id="namedview1"
     pagecolor="#ffffff"
     bordercolor="#000000"
     borderopacity="0.25"
     inkscape:showpageshadow="2"
     inkscape:pageopacity="0.0"
     inkscape:pagecheckerboard="0"
     inkscape:deskcolor="#d1d1d1"
     inkscape:zoom="10.006667"
     inkscape:cx="70.802798"
     inkscape:cy="15.83944"
     inkscape:window-width="2560"
     inkscape:window-height="1009"
     inkscape:window-x="-8"
     inkscape:window-y="-8"
     inkscape:window-maximized="1"
     inkscape:current-layer="a" />
  <path
     d="m 160.03587,45.07 c -0.078,-0.735 -0.004,-1.462 -0.114,-2.198 -1.997,-13.3 -9.054,-25.025 -19.871,-33.016 -8.727,-6.448 -19.061,-9.856 -29.886,-9.856 -7.12,0 -14.050997,1.602 -20.420997,4.433 -6.241,-2.779 -13.108,-4.392 -20.369,-4.392 -25.904,0 -47.051,19.736 -49.8,44.921 -2.151,1.561 -4.276,3.174 -6.192,5.09 -9.5089996,9.51 -14.7469996,22.154 -14.7469996,35.603 0,13.449 5.237,26.092 14.7469996,35.602 1.893,1.893 3.995,3.481 6.117,5.028 0.557,5.186 1.7,10.329 3.888,15.229 8.093,18.118 26.146,29.825 45.994,29.825 7.092,0 13.993,-1.476 20.511,-4.387 0.006,-0.003 0.011,-0.006 0.016,-0.009 0.518,0.227 0.953,0.563 1.482,0.775 6,2.404 12.294997,3.622 18.712997,3.622 20.7,0 39.051,-12.417 46.75,-31.634 1.764,-4.403 2.63,-8.905 3.105,-13.404 12.602,-9.16 20.896,-23.911 20.896,-40.647 0,-16.736 -8.262,-31.42 -20.819,-40.585 z m -49.853,46.683 c -0.271,0.006 -0.542,0.028 -0.813,0.028 -0.098,0 -0.198,-0.006 -0.296,-0.019 -2.441,-0.029 -4.976,-0.338 -7.666,-0.907 l -1.281,-0.248 c -1.607997,-0.365 -1.971997,0.186 -0.896997,1.5 l 1.097997,1.397 c 1.595,1.836 3.014,3.79 4.223,5.837 0.194,0.33 0.38,0.662 0.571,0.993 0.575,0.994 1.135,1.995 1.612,3.058 2.258,5.057 3.42,10.493 3.453,16.154 l 0.015,1.252 0.003,0.224 -0.137,-0.08 -1.143,-0.666 c -5.784,-3.382 -10.626997,-8.194 -14.100997,-13.939 -0.2,-0.331 -0.413,-0.652 -0.604,-0.989 -1.333,-2.345 -2.416,-4.87 -3.256,-7.507 l -0.339,-0.959 c -0.564,-1.55 -1.304,-1.555 -1.827,0.061 l -0.611,1.773 c 0,0 -0.004,-0.007 -0.005,-0.011 -0.795,2.318 -1.786,4.553 -2.975,6.654 -0.183,0.326 -0.367,0.637 -0.551,0.949 -1.85,3.146 -3.737,5.645 -5.887,7.791 -2.237,2.247 -4.86,4.212 -8.257,6.183 l -1.071,0.633 -0.195,0.116 v -0.193 c 0,0 0.01,-1.287 0.01,-1.287 0.026,-5.178 0.972,-10.128 2.81,-14.71 0.631,-1.58 1.386,-3.103 2.205,-4.576 0.185,-0.333 0.352,-0.68 0.546,-1.006 1.108,-1.877 2.483,-3.735 4.158,-5.635 l 1.151,-1.464 c 1.075,-1.315 0.711,-1.866 -0.897,-1.5 l -1.182,0.228 c -2.712,0.571 -5.249,0.876 -7.691,0.893 -0.132,0.022 -0.229,0.032 -0.321,0.032 -0.268,0 -0.534,-0.021 -0.802,-0.027 -6.535,-0.136 -12.905,-1.921 -18.942,-5.347 l -1.108,-0.63 -0.167,-0.107 0.186,-0.108 1.096,-0.618 c 0.369,-0.208 2.496,-1.525 3.321,-1.898 5.028,-2.246 10.346,-3.411 15.812,-3.487 0.189,-0.003 0.972,0.002 1.156,0.025 2.241,0.024 4.607,0.291 7.037,0.776 l 1.658,0.32 c 1.608,0.365 1.972,-0.186 0.897,-1.5 l -1.095,-1.393 c -1.738,-1.958 -3.172,-3.884 -4.328,-5.841 -0.199,-0.337 -0.373,-0.69 -0.561,-1.034 -3.123,-5.712 -4.813,-12.287 -4.859,-19.116 l -0.015,-1.322 -0.002,-0.163 0.2,0.118 1.081,0.637 c 3.347,1.962 5.943,3.912 8.169,6.137 2.148,2.15 4.032,4.646 5.878,7.781 0.187,0.318 0.374,0.635 0.56,0.966 1.225,2.163 2.237,4.463 3.041,6.847 l 0.64,1.594 c 0.564,1.55 1.225,1.557 1.747,-0.058 l 0.611,-1.773 c 0,0 0.004,0.008 0.005,0.012 0.793,-2.3 1.782,-4.521 2.968,-6.616 0.193,-0.341 0.409,-0.667 0.611,-1.001 3.484,-5.76 8.336997,-10.572 14.129997,-13.942 l 1.17,-0.689 0.102,-0.06 v 0.196 c 0,0 -0.008,1.277 -0.008,1.277 -0.021,6.695 -1.766,13.146 -5.146,19.2 -0.191,0.341 -0.365,0.686 -0.566,1.025 -1.288,2.176 -2.615,4.068 -4.021,5.744 0,0 0.001,0 0.002,0 l -1.158997,1.475 c -1.075,1.315 -0.711,1.866 0.896997,1.5 l 1.275,-0.247 c 2.59,-0.542 5.051,-0.836 7.46,-0.864 l 0.116,-0.011 c 0.108,-0.011 0.215,-0.024 0.331,-0.015 0.246,0 0.489,0.013 0.734,0.017 4.883,0.088 9.646,1.047 14.194,2.874 1.442,0.577 2.745,1.327 4.005,2.052 l 1.873,1.066 0.171,0.097 -0.135,0.076 -1.16,0.654 c -5.976,3.369 -12.496,5.195 -18.912,5.339 z m 18.659,-17.511 c -4.419,-1.771 -9.028,-2.672 -13.698,-3.143 2.879,-6.335 4.578,-13.311 4.578,-20.71 0,-1.284 -0.284,-2.49 -0.379,-3.75 3.57,-1.022 7.265,-1.743 11.163,-1.743 7.414,0 14.271,2.129 20.262,5.589 -0.02,8.382 -2.493,16.826 -7.856,24.084 -1.344,1.819 -2.965,3.279 -4.534,4.807 -2.943,-1.999 -6.1,-3.758 -9.536,-5.135 z M 110.16387,9.59 c 8.414,0 16.901,2.596 24.187,7.979 7.462,5.513 12.347,13.125 14.754,21.394 -5.767,-2.306 -12.018,-3.658 -18.599,-3.658 -4.44,0 -8.669,0.761 -12.774,1.846 -2.903,-10.567 -9.107,-19.678 -17.512,-26.259 3.255,-0.816 6.583,-1.302 9.943,-1.302 z M 82.938873,20.129 c 0.872,-0.754 1.776,-1.46 2.7,-2.134 0.602,-0.439 1.211,-0.862 1.831,-1.269 0.758,-0.497 1.523,-0.98 2.303,-1.432 v 0 c 1.156,0.673 2.263,1.415 3.342,2.193 0.965,0.696 1.909,1.417 2.807,2.191 0.634,0.547 1.251,1.112 1.849,1.696 0.534,0.521 1.05,1.059 1.555,1.608 1.179997,1.283 2.272997,2.645 3.279997,4.073 0.494,0.7 0.974,1.41 1.423,2.142 2.11,3.436 3.722,7.214 4.738,11.245 -7.591,3.669 -14.124997,9.111 -19.015997,15.891 -1.579,-2.185 -3.219,-4.337 -5.163,-6.281 -4.1,-4.1 -8.867,-7.233 -13.945,-9.667 1.26,-5 3.456,-9.851 6.71,-14.255 0.855,-1.158 1.766,-2.244 2.725,-3.265 0.912,-0.971 1.871,-1.879 2.862,-2.736 z m -13.564,-10.498 c 1.665,0 3.294,0.127 4.895,0.349 1.601,0.222 3.172,0.537 4.721,0.914 -3.489,2.744 -6.67,5.905 -9.353,9.537 -3.759,5.088 -6.383,10.75 -8.003,16.674 -4.101,-1.062 -8.301,-1.8 -12.648,-1.8 -6.452,0 -12.694,1.273 -18.518,3.577 4.991,-16.867 20.422,-29.251 38.907,-29.251 z m -20.39,35.265 c 3.729,0 7.416,0.691 11.031,1.708 -0.271,3.709 -0.24,7.457 0.326,11.224 0.705,4.698 2.25,9.091 4.161,13.301 -5.38,0.523 -10.665,1.64 -15.678,3.879 -2.808,1.255 -5.42,2.802 -7.907,4.5 -7.542,-7.371 -12.251,-17.618 -12.288,-28.987 6.294,-3.647 13.293,-5.625 20.354,-5.625 z m -26.652,58.096 c -1.351,3.53 -2.186,7.154 -2.72,10.805 -15.1309996,-15.794 -15.1009996,-40.692 0.118,-56.433 1.537,10.938 6.413,20.801 13.815,28.314 -4.823,4.89 -8.686,10.706 -11.213,17.313 z m 18.648,-11.083 c 6.776,4.648 14.794,7.457 23.39,8.322 -0.311,0.688 -0.708,1.316 -0.991,2.022 -2.952,7.367 -3.841,14.997 -3.278,22.424 -3.643,1.034 -7.359,1.734 -11.118,1.734 -7.044,0 -14.026,-1.971 -20.308,-5.6 0.054,-10.856 4.49,-21.267 12.304,-28.901 z m 28.402,69.837 c -15.589,0 -30.468,-8.991 -37.237,-24.145 -0.76,-1.7 -1.206,-3.449 -1.717,-5.188 5.835,2.314 12.091,3.589 18.557,3.589 4.386,0 8.622,-0.751 12.756,-1.832 0,0 0,0 0,0 v 0 c 2.819,10.283 8.853,19.485 17.438,26.236 -3.257,0.814 -6.535,1.341 -9.797,1.341 z m 20.314,-5.683 c -9.692,-5.633 -16.377,-14.774 -19.002,-25.169 5.058,-2.432 9.807,-5.553 13.893,-9.639 1.944,-1.944 3.585,-4.096 5.163,-6.281 4.883,6.767 11.402997,12.2 18.975997,15.868 0,0 0,0 0,0 0,0 0,0 0,0 -2.613,10.394 -9.253997,19.558 -19.029997,25.221 z m 58.253997,-19.926 c -6.38,15.924 -21.681,25.61 -37.846,25.61 -3.227,0 -6.473,-0.539 -9.704,-1.337 8.588,-6.77 14.493,-16.024 17.294,-26.265 0,0 0,0 0,0 0,0 0,0 0,0 4.116,1.091 8.358,1.858 12.812,1.858 6.556,0 12.782,-1.348 18.531,-3.637 -0.368,1.258 -0.59,2.53 -1.087,3.772 z m -17.443,-9.726 c -3.904,0 -7.603,-0.723 -11.178,-1.748 0.61,-8.056 -0.479,-16.338 -3.998,-24.218 -0.008,-0.019 -0.021,-0.035 -0.029,-0.054 8.388,-0.88 16.381,-3.862 23.266,-8.57 v 0 c 7.789,7.607 12.209,18.072 12.265,28.966 -6.004,3.482 -12.885,5.624 -20.326,5.624 z m 29.236,-12.442 c -1.521,-10.623 -6.238,-20.595 -13.815,-28.302 0,0 0,0 0,0 v 0 c 0,0 0,0 0,0 1.673,-1.69 3.27,-3.463 4.699,-5.398 5.053,-6.839 7.994,-14.706 9.142,-22.898 7.088,7.333 11.495,17.278 11.495,28.283 0,11.005 -4.416,20.979 -11.522,28.315 z"
     fill="#00c4ff"
     id="path1" />
</svg>
