<svg
   version="1.1"
   viewBox="-5 -10 84.361511 80.703392"
   id="svg1"
   sodipodi:docname="sparkles.svg"
   width="84.361511"
   height="80.703392"
   inkscape:version="1.3.2 (091e20e, 2023-11-25, custom)"
   xmlns:inkscape="http://www.inkscape.org/namespaces/inkscape"
   xmlns:sodipodi="http://sodipodi.sourceforge.net/DTD/sodipodi-0.dtd"
   xmlns="http://www.w3.org/2000/svg"
   xmlns:svg="http://www.w3.org/2000/svg">
  <path
     fill="currentColor"
     d="m 79.135997,20.5276 c -0.44922,-1.3789 -1.5703,-2.3789 -2.9883,-2.6797 l -23.57,-4.8984 -11.941,-20.93 C 39.917947,-9.2422 38.617197,-10 37.167897,-10 c -1.4493,0 -2.75,0.75 -3.4688,2.0195 l -11.941,20.93 -23.5700001,4.8984 c -1.4219,0.28906 -2.5391,1.3008 -2.9883,2.6797 -0.44922,1.3789 -0.12891,2.8516 0.83984,3.9297 l 16.1990001,17.84 -2.6289001,23.961 c -0.16016,1.4492 0.4492201,2.8203 1.6289001,3.6719 0.69922,0.51172 1.5195,0.76953 2.3398,0.76953 0.55859,0 1.1211,-0.12109 1.6602,-0.35937 l 21.941,-9.9102 21.941,9.9102 c 1.3281,0.60156 2.8203,0.44922 4,-0.41016 1.1797,-0.85156 1.7891,-2.2305 1.6289,-3.6719 l -2.6289,-23.961 16.199,-17.84 c 0.98047,-1.0781 1.2891,-2.5391 0.83984,-3.9297 z"
     id="path1" />
</svg>
