<svg height="24" viewBox="0 -960 960 960" width="24" fill="#e3e3e3" version="1.1" id="svg1" xmlns="http://www.w3.org/2000/svg" xmlns:svg="http://www.w3.org/2000/svg">
  <defs id="defs1"></defs>
  <path transform="rotate(45)" id="body" style="fill:#fff9f9;stroke:#000000;stroke-width:62.6467;stroke-linecap:round;stroke-linejoin:round" d="M206.01871,-678.82251 C206.01871,-565.04152 113.78099,-472.8038 0,-472.8038 -113.78099,-472.8038 -206.01871,-565.04152 -206.01871,-678.82251 -206.01871,-792.6035 -113.78099,-884.84122 0,-884.84122 113.78099,-884.84122 206.01871,-792.6035 206.01871,-678.82251 z"></path>
  <path transform="rotate(90)" style="fill:#fff9f9;stroke:#000000;stroke-width:44.8281;stroke-linecap:round;stroke-linejoin:round" id="ray1" d="M-818.72456,-497.73236 C-818.72456,-485.91073 -818.72456,-474.08911 -818.72456,-462.26748 -843.92872,-462.26748 -869.13288,-462.26748 -894.33704,-462.26748 -894.33704,-474.08911 -894.33704,-485.91073 -894.33704,-497.73236 -869.13288,-497.73236 -843.92872,-497.73236 -818.72456,-497.73236 z"></path>
  <path transform="rotate(135)" style="fill:#fff9f9;stroke:#000000;stroke-width:44.8281;stroke-linecap:round;stroke-linejoin:round" id="ray2" d="M-1021.61832,-13.66123 C-1021.61832,-1.83961 -1021.61832,9.98202 -1021.61832,21.80365 -1046.82248,21.80365 -1072.02664,21.80365 -1097.2308,21.80365 -1097.2308,9.98202 -1097.2308,-1.83961 -1097.2308,-13.66123 -1072.02664,-13.66123 -1046.82248,-13.66123 -1021.61832,-13.66123 z"></path>
  <path style="fill:#fff9f9;stroke:#000000;stroke-width:44.8281;stroke-linecap:round;stroke-linejoin:round" id="ray3" d="M895.96014,-499.50366 C895.96014,-487.68203 895.96014,-475.86041 895.96014,-464.03878 870.75598,-464.03878 845.55182,-464.03878 820.34766,-464.03878 820.34766,-475.86041 820.34766,-487.68203 820.34766,-499.50366 845.55182,-499.50366 870.75598,-499.50366 895.96014,-499.50366 z"></path>
  <path transform="rotate(45)" style="fill:#fff9f9;stroke:#000000;stroke-width:44.8281;stroke-linecap:round;stroke-linejoin:round" id="ray4" d="M410.16109,-694.88385 C410.16109,-683.06222 410.16109,-671.2406 410.16109,-659.41897 384.95693,-659.41897 359.75277,-659.41897 334.54861,-659.41897 334.54861,-671.2406 334.54861,-683.06222 334.54861,-694.88385 359.75277,-694.88385 384.95693,-694.88385 410.16109,-694.88385 z"></path>
  <path transform="rotate(90)" style="fill:#fff9f9;stroke:#000000;stroke-width:44.8281;stroke-linecap:round;stroke-linejoin:round" id="ray5" d="M-65.66294,-497.73236 C-65.66294,-485.91073 -65.66294,-474.08911 -65.66294,-462.26748 -90.8671,-462.26748 -116.07126,-462.26748 -141.27542,-462.26748 -141.27542,-474.08911 -141.27542,-485.91073 -141.27542,-497.73236 -116.07126,-497.73236 -90.8671,-497.73236 -65.66294,-497.73236 z"></path>
  <path transform="rotate(135)" style="fill:#fff9f9;stroke:#000000;stroke-width:44.8281;stroke-linecap:round;stroke-linejoin:round" id="rect6" d="M-268.55665,-13.66123 C-268.55665,-1.83961 -268.55665,9.98202 -268.55665,21.80365 -293.76081,21.80365 -318.96497,21.80365 -344.16913,21.80365 -344.16913,9.98202 -344.16913,-1.83961 -344.16913,-13.66123 -318.96497,-13.66123 -293.76081,-13.66123 -268.55665,-13.66123 z"></path>
  <path style="fill:#fff9f9;stroke:#000000;stroke-width:44.8281;stroke-linecap:round;stroke-linejoin:round" id="ray7" d="M142.89848,-499.50366 C142.89848,-487.68203 142.89848,-475.86041 142.89848,-464.03878 117.69432,-464.03878 92.49016,-464.03878 67.286,-464.03878 67.286,-475.86041 67.286,-487.68203 67.286,-499.50366 92.49016,-499.50366 117.69432,-499.50366 142.89848,-499.50366 z"></path>
  <path transform="rotate(45)" style="fill:#fff9f9;stroke:#000000;stroke-width:44.8281;stroke-linecap:round;stroke-linejoin:round" id="ray8" d="M-342.90052,-694.88385 C-342.90052,-683.06222 -342.90052,-671.2406 -342.90052,-659.41897 -368.10468,-659.41897 -393.30884,-659.41897 -418.513,-659.41897 -418.513,-671.2406 -418.513,-683.06222 -418.513,-694.88385 -393.30884,-694.88385 -368.10468,-694.88385 -342.90052,-694.88385 z"></path>
</svg>