<?xml version="1.0" encoding="UTF-8" standalone="no"?>
<svg
   height="24"
   viewBox="0 -960 960 960"
   width="24"
   fill="#e3e3e3"
   version="1.1"
   id="svg1"
   xmlns="http://www.w3.org/2000/svg"
   xmlns:svg="http://www.w3.org/2000/svg">
  <defs
     id="defs1" />
  <path
     id="body"
     style="fill:#fff9f9;stroke:#000000;stroke-width:62.6467;stroke-linecap:round;stroke-linejoin:round"
     d="m 625.67723,-334.32277 c -80.45531,80.45531 -210.89915,80.45531 -291.35446,0 -80.45531,-80.45531 -80.45531,-210.89915 0,-291.35446 80.45531,-80.45531 210.89915,-80.45531 291.35446,0 80.45531,80.45531 80.45531,210.89915 0,291.35446 z" />
  <path
     style="fill:#fff9f9;stroke:#000000;stroke-width:44.8281;stroke-linecap:round;stroke-linejoin:round"
     id="ray1"
     d="m 497.73236,-818.72456 c -11.82163,0 -23.64325,0 -35.46488,0 0,-25.20416 0,-50.40832 0,-75.61248 11.82163,0 23.64325,0 35.46488,0 0,25.20416 0,50.40832 0,75.61248 z" />
  <path
     style="fill:#fff9f9;stroke:#000000;stroke-width:44.8281;stroke-linecap:round;stroke-linejoin:round"
     id="ray2"
     d="m 732.05319,-712.73329 c -8.35915,-8.35915 -16.7183,-16.71831 -25.07746,-25.07746 17.82204,-17.82203 35.64407,-35.64407 53.4661,-53.4661 8.35916,8.35916 16.71831,16.71831 25.07746,25.07746 -17.82203,17.82203 -35.64407,35.64406 -53.4661,53.4661 z" />
  <path
     style="fill:#fff9f9;stroke:#000000;stroke-width:44.8281;stroke-linecap:round;stroke-linejoin:round"
     id="ray3"
     d="m 895.96014,-499.50366 c 0,11.82163 0,23.64325 0,35.46488 -25.20416,0 -50.40832,0 -75.61248,0 0,-11.82163 0,-23.64325 0,-35.46488 25.20416,0 50.40832,0 75.61248,0 z" />
  <path
     style="fill:#fff9f9;stroke:#000000;stroke-width:44.8281;stroke-linecap:round;stroke-linejoin:round"
     id="ray4"
     d="m 781.38477,-201.32939 c -8.35915,8.35915 -16.7183,16.7183 -25.07746,25.07745 -17.82203,-17.82203 -35.64406,-35.64406 -53.46609,-53.46609 8.35915,-8.35916 16.7183,-16.71831 25.07745,-25.07746 17.82204,17.82203 35.64407,35.64406 53.4661,53.4661 z" />
  <path
     style="fill:#fff9f9;stroke:#000000;stroke-width:44.8281;stroke-linecap:round;stroke-linejoin:round"
     id="ray5"
     d="m 497.73236,-65.66294 c -11.82163,0 -23.64325,0 -35.46488,0 0,-25.20416 0,-50.40832 0,-75.61248 11.82163,0 23.64325,0 35.46488,0 0,25.20416 0,50.40832 0,75.61248 z" />
  <path
     style="fill:#fff9f9;stroke:#000000;stroke-width:44.8281;stroke-linecap:round;stroke-linejoin:round"
     id="rect6"
     d="m 199.55818,-180.23828 c -8.35915,-8.35915 -16.71831,-16.7183 -25.07746,-25.07746 17.82203,-17.82203 35.64406,-35.64406 53.4661,-53.46609 8.35915,8.35915 16.71831,16.71831 25.07745,25.07745 -17.82203,17.82204 -35.64406,35.64407 -53.46609,53.4661 z" />
  <path
     style="fill:#fff9f9;stroke:#000000;stroke-width:44.8281;stroke-linecap:round;stroke-linejoin:round"
     id="ray7"
     d="m 142.89848,-499.50366 c 0,11.82163 0,23.64325 0,35.46488 -25.20416,0 -50.40832,0 -75.61248,0 0,-11.82163 0,-23.64325 0,-35.46488 25.20416,0 50.40832,0 75.61248,0 z" />
  <path
     style="fill:#fff9f9;stroke:#000000;stroke-width:44.8281;stroke-linecap:round;stroke-linejoin:round"
     id="ray8"
     d="m 248.8898,-733.82437 c -8.35916,8.35916 -16.7183,16.71831 -25.07746,25.07746 -17.82203,-17.82203 -35.64406,-35.64406 -53.46609,-53.4661 8.35915,-8.35915 16.7183,-16.7183 25.07745,-25.07745 17.82203,17.82203 35.64407,35.64406 53.4661,53.46609 z" />
</svg>
