<?xml version="1.0" encoding="UTF-8" standalone="no"?>
<svg
   id="Layer_1"
   data-name="Layer 1"
   viewBox="0 0 31.410021 25.840021"
   version="1.1"
   sodipodi:docname="syndigo.svg"
   width="31.410021"
   height="25.840021"
   inkscape:version="1.3.2 (091e20e, 2023-11-25, custom)"
   xmlns:inkscape="http://www.inkscape.org/namespaces/inkscape"
   xmlns:sodipodi="http://sodipodi.sourceforge.net/DTD/sodipodi-0.dtd"
   xmlns="http://www.w3.org/2000/svg"
   xmlns:svg="http://www.w3.org/2000/svg">
  <defs
     id="defs2" />
  <sodipodi:namedview
     id="namedview2"
     pagecolor="#ffffff"
     bordercolor="#000000"
     borderopacity="0.25"
     inkscape:showpageshadow="2"
     inkscape:pageopacity="0.0"
     inkscape:pagecheckerboard="0"
     inkscape:deskcolor="#d1d1d1"
     inkscape:zoom="9.8"
     inkscape:cx="-58.571429"
     inkscape:cy="22.602041"
     inkscape:window-width="2560"
     inkscape:window-height="1009"
     inkscape:window-x="-8"
     inkscape:window-y="-8"
     inkscape:window-maximized="1"
     inkscape:current-layer="Layer_1" />
  <g
     clip-path="url(#clip-path)"
     id="g2"
     transform="translate(-148.59,-1.839979)">
    <path
       d="m 362.61,395.73 h -16.48 a 2.4,2.4 0 1 1 0,-4.8 h 16.48 a 2.4,2.4 0 1 1 0,4.8 m 0,-18.83 a 2.4,2.4 0 1 0 2.4,2.4 2.39,2.39 0 0 0 -2.4,-2.4 m -16.48,0 h 9.71 a 2.4,2.4 0 0 1 0,4.8 h -9.71 a 2.4,2.4 0 1 1 0,-4.8"
       transform="translate(-185.01,-375.06)"
       style="fill:#00c4f2"
       id="path1" />
    <path
       d="m 336,402.74 a 2.4,2.4 0 1 0 -2.4,-2.4 2.41,2.41 0 0 0 2.4,2.4 m 16.49,0 h -9.72 a 2.4,2.4 0 0 1 0,-4.8 h 9.72 a 2.4,2.4 0 1 1 0,4.8 M 336,383.91 h 16.49 a 2.4,2.4 0 1 1 0,4.8 H 336 a 2.4,2.4 0 0 1 0,-4.8"
       transform="translate(-185.01,-375.06)"
       style="fill:#33eb17"
       id="path2" />
  </g>
</svg>
